
<svg width="1995" height="214" viewBox="0 0 1995 214" fill="none" xmlns="http://www.w3.org/2000/svg">
<mask id="path-1-outside-1_1219_3125" maskUnits="userSpaceOnUse" x="257" y="75.6016" width="307" height="110" fill="black">
<rect fill="white" x="257" y="75.6016" width="307" height="110"/>
<path d="M342.299 96.1581H311.983V182.602H290.461V96.1581H260.145V78.8551H342.299V96.1581ZM458.345 78.8551V182.602H436.752V137.914H391.064V182.602H369.471V78.8551H391.064V122.899H436.752V78.8551H458.345ZM515.965 95.6576V122.327H550.571V138.558H515.965V165.799H560.438V182.602H494.372V78.8551H560.438V95.6576H515.965Z"/>
</mask>
<path d="M342.299 96.1581H311.983V182.602H290.461V96.1581H260.145V78.8551H342.299V96.1581ZM458.345 78.8551V182.602H436.752V137.914H391.064V182.602H369.471V78.8551H391.064V122.899H436.752V78.8551H458.345ZM515.965 95.6576V122.327H550.571V138.558H515.965V165.799H560.438V182.602H494.372V78.8551H560.438V95.6576H515.965Z" fill="#131313"/>
<path d="M342.299 96.1581V99.1581H345.299V96.1581H342.299ZM311.983 96.1581V93.1581H308.983V96.1581H311.983ZM311.983 182.602V185.602H314.983V182.602H311.983ZM290.461 182.602H287.461V185.602H290.461V182.602ZM290.461 96.1581H293.461V93.1581H290.461V96.1581ZM260.145 96.1581H257.145V99.1581H260.145V96.1581ZM260.145 78.8551V75.8551H257.145V78.8551H260.145ZM342.299 78.8551H345.299V75.8551H342.299V78.8551ZM342.299 96.1581V93.1581H311.983V96.1581V99.1581H342.299V96.1581ZM311.983 96.1581H308.983V182.602H311.983H314.983V96.1581H311.983ZM311.983 182.602V179.602H290.461V182.602V185.602H311.983V182.602ZM290.461 182.602H293.461V96.1581H290.461H287.461V182.602H290.461ZM290.461 96.1581V93.1581H260.145V96.1581V99.1581H290.461V96.1581ZM260.145 96.1581H263.145V78.8551H260.145H257.145V96.1581H260.145ZM260.145 78.8551V81.8551H342.299V78.8551V75.8551H260.145V78.8551ZM342.299 78.8551H339.299V96.1581H342.299H345.299V78.8551H342.299ZM458.345 78.8551H461.345V75.8551H458.345V78.8551ZM458.345 182.602V185.602H461.345V182.602H458.345ZM436.752 182.602H433.752V185.602H436.752V182.602ZM436.752 137.914H439.752V134.914H436.752V137.914ZM391.064 137.914V134.914H388.064V137.914H391.064ZM391.064 182.602V185.602H394.064V182.602H391.064ZM369.471 182.602H366.471V185.602H369.471V182.602ZM369.471 78.8551V75.8551H366.471V78.8551H369.471ZM391.064 78.8551H394.064V75.8551H391.064V78.8551ZM391.064 122.899H388.064V125.899H391.064V122.899ZM436.752 122.899V125.899H439.752V122.899H436.752ZM436.752 78.8551V75.8551H433.752V78.8551H436.752ZM458.345 78.8551H455.345V182.602H458.345H461.345V78.8551H458.345ZM458.345 182.602V179.602H436.752V182.602V185.602H458.345V182.602ZM436.752 182.602H439.752V137.914H436.752H433.752V182.602H436.752ZM436.752 137.914V134.914H391.064V137.914V140.914H436.752V137.914ZM391.064 137.914H388.064V182.602H391.064H394.064V137.914H391.064ZM391.064 182.602V179.602H369.471V182.602V185.602H391.064V182.602ZM369.471 182.602H372.471V78.8551H369.471H366.471V182.602H369.471ZM369.471 78.8551V81.8551H391.064V78.8551V75.8551H369.471V78.8551ZM391.064 78.8551H388.064V122.899H391.064H394.064V78.8551H391.064ZM391.064 122.899V125.899H436.752V122.899V119.899H391.064V122.899ZM436.752 122.899H439.752V78.8551H436.752H433.752V122.899H436.752ZM436.752 78.8551V81.8551H458.345V78.8551V75.8551H436.752V78.8551ZM515.965 95.6576V92.6576H512.965V95.6576H515.965ZM515.965 122.327H512.965V125.327H515.965V122.327ZM550.571 122.327H553.571V119.327H550.571V122.327ZM550.571 138.558V141.558H553.571V138.558H550.571ZM515.965 138.558V135.558H512.965V138.558H515.965ZM515.965 165.799H512.965V168.799H515.965V165.799ZM560.438 165.799H563.438V162.799H560.438V165.799ZM560.438 182.602V185.602H563.438V182.602H560.438ZM494.372 182.602H491.372V185.602H494.372V182.602ZM494.372 78.8551V75.8551H491.372V78.8551H494.372ZM560.438 78.8551H563.438V75.8551H560.438V78.8551ZM560.438 95.6576V98.6576H563.438V95.6576H560.438ZM515.965 95.6576H512.965V122.327H515.965H518.965V95.6576H515.965ZM515.965 122.327V125.327H550.571V122.327V119.327H515.965V122.327ZM550.571 122.327H547.571V138.558H550.571H553.571V122.327H550.571ZM550.571 138.558V135.558H515.965V138.558V141.558H550.571V138.558ZM515.965 138.558H512.965V165.799H515.965H518.965V138.558H515.965ZM515.965 165.799V168.799H560.438V165.799V162.799H515.965V165.799ZM560.438 165.799H557.438V182.602H560.438H563.438V165.799H560.438ZM560.438 182.602V179.602H494.372V182.602V185.602H560.438V182.602ZM494.372 182.602H497.372V78.8551H494.372H491.372V182.602H494.372ZM494.372 78.8551V81.8551H560.438V78.8551V75.8551H494.372V78.8551ZM560.438 78.8551H557.438V95.6576H560.438H563.438V78.8551H560.438ZM560.438 95.6576V92.6576H515.965V95.6576V98.6576H560.438V95.6576Z" fill="#131313" mask="url(#path-1-outside-1_1219_3125)"/>
<mask id="path-3-outside-2_1219_3125" maskUnits="userSpaceOnUse" x="810" y="74.6016" width="1134" height="113" fill="black">
<rect fill="white" x="810" y="74.6016" width="1134" height="113"/>
<path d="M881.637 143.205L870.412 111.459C869.744 109.791 869.029 107.836 868.267 105.596C867.552 103.356 866.86 100.925 866.193 98.3031C865.526 100.972 864.811 103.451 864.048 105.739C863.333 107.979 862.642 109.934 861.975 111.602L850.821 143.205H881.637ZM917.673 182.602H901.014C899.155 182.602 897.629 182.173 896.438 181.315C895.294 180.409 894.436 179.265 893.864 177.883L886.857 158.077H845.53L838.523 177.883C838.046 179.074 837.212 180.171 836.02 181.172C834.828 182.125 833.327 182.602 831.516 182.602H814.713L855.254 78.8551H877.204L917.673 182.602ZM981.393 165.442C984.873 165.442 987.995 164.87 990.759 163.726C993.524 162.534 995.86 160.866 997.766 158.721C999.673 156.576 1001.13 153.978 1002.13 150.927C1003.13 147.876 1003.63 144.444 1003.63 140.631V78.8551H1025.08V140.631C1025.08 146.923 1024.05 152.715 1022 158.006C1020 163.249 1017.12 167.777 1013.35 171.591C1009.59 175.404 1005.01 178.383 999.625 180.528C994.239 182.673 988.162 183.746 981.393 183.746C974.624 183.746 968.523 182.673 963.089 180.528C957.703 178.383 953.127 175.404 949.361 171.591C945.595 167.777 942.688 163.249 940.638 158.006C938.636 152.715 937.635 146.923 937.635 140.631V78.8551H959.085V140.631C959.085 144.444 959.585 147.876 960.586 150.927C961.587 153.978 963.041 156.576 964.948 158.721C966.855 160.866 969.19 162.534 971.955 163.726C974.72 164.87 977.866 165.442 981.393 165.442ZM1133.2 96.1581H1102.89V182.602H1081.37V96.1581H1051.05V78.8551H1133.2V96.1581ZM1257.55 130.693C1257.55 138.272 1256.26 145.302 1253.69 151.785C1251.16 158.268 1247.56 163.869 1242.89 168.588C1238.27 173.307 1232.69 177.025 1226.16 179.742C1219.63 182.411 1212.38 183.746 1204.42 183.746C1196.46 183.746 1189.22 182.411 1182.69 179.742C1176.16 177.025 1170.56 173.307 1165.88 168.588C1161.21 163.869 1157.59 158.268 1155.02 151.785C1152.49 145.302 1151.23 138.272 1151.23 130.693C1151.23 123.114 1152.49 116.107 1155.02 109.672C1157.59 103.189 1161.21 97.5881 1165.88 92.8691C1170.56 88.1501 1176.16 84.4559 1182.69 81.7866C1189.22 79.0696 1196.46 77.7111 1204.42 77.7111C1212.38 77.7111 1219.63 79.0696 1226.16 81.7866C1232.69 84.4559 1238.27 88.1739 1242.89 92.9406C1247.56 97.6596 1251.16 103.26 1253.69 109.743C1256.26 116.178 1257.55 123.161 1257.55 130.693ZM1235.6 130.693C1235.6 125.259 1234.88 120.397 1233.45 116.107C1232.02 111.769 1229.95 108.099 1227.23 105.096C1224.56 102.045 1221.3 99.7331 1217.44 98.1601C1213.62 96.5394 1209.28 95.7291 1204.42 95.7291C1199.56 95.7291 1195.2 96.5394 1191.34 98.1601C1187.48 99.7331 1184.19 102.045 1181.47 105.096C1178.8 108.099 1176.75 111.769 1175.32 116.107C1173.89 120.397 1173.18 125.259 1173.18 130.693C1173.18 136.174 1173.89 141.084 1175.32 145.422C1176.75 149.712 1178.8 153.358 1181.47 156.361C1184.19 159.364 1187.48 161.676 1191.34 163.297C1195.2 164.87 1199.56 165.656 1204.42 165.656C1209.28 165.656 1213.62 164.87 1217.44 163.297C1221.3 161.676 1224.56 159.364 1227.23 156.361C1229.95 153.358 1232.02 149.712 1233.45 145.422C1234.88 141.084 1235.6 136.174 1235.6 130.693ZM1401.91 78.8551V182.602H1382.96V118.895C1382.96 117.56 1382.99 116.13 1383.04 114.605C1383.13 113.08 1383.27 111.531 1383.47 109.958L1353.79 166.228C1352.17 169.326 1349.67 170.876 1346.29 170.876H1343.28C1341.61 170.876 1340.14 170.494 1338.85 169.732C1337.56 168.921 1336.54 167.753 1335.77 166.228L1305.96 109.743C1306.1 111.411 1306.22 113.032 1306.32 114.605C1306.41 116.13 1306.46 117.56 1306.46 118.895V182.602H1287.51V78.8551H1303.81C1304.72 78.8551 1305.53 78.8789 1306.25 78.9266C1306.96 78.9742 1307.58 79.1172 1308.1 79.3556C1308.68 79.5462 1309.18 79.8799 1309.61 80.3566C1310.08 80.7856 1310.54 81.4052 1310.96 82.2156L1339.99 137.557C1340.9 139.225 1341.73 140.941 1342.5 142.705C1343.31 144.468 1344.07 146.28 1344.78 148.139C1345.5 146.232 1346.24 144.373 1347 142.562C1347.81 140.75 1348.67 139.01 1349.57 137.342L1378.39 82.2156C1378.82 81.4052 1379.27 80.7856 1379.75 80.3566C1380.22 79.8799 1380.72 79.5462 1381.25 79.3556C1381.82 79.1172 1382.44 78.9742 1383.11 78.9266C1383.82 78.8789 1384.66 78.8551 1385.61 78.8551H1401.91ZM1492.6 143.205L1481.37 111.459C1480.71 109.791 1479.99 107.836 1479.23 105.596C1478.51 103.356 1477.82 100.925 1477.15 98.3031C1476.49 100.972 1475.77 103.451 1475.01 105.739C1474.29 107.979 1473.6 109.934 1472.94 111.602L1461.78 143.205H1492.6ZM1528.63 182.602H1511.98C1510.12 182.602 1508.59 182.173 1507.4 181.315C1506.26 180.409 1505.4 179.265 1504.83 177.883L1497.82 158.077H1456.49L1449.48 177.883C1449.01 179.074 1448.17 180.171 1446.98 181.172C1445.79 182.125 1444.29 182.602 1442.48 182.602H1425.67L1466.22 78.8551H1488.17L1528.63 182.602ZM1615.77 96.1581H1585.46V182.602H1563.94V96.1581H1533.62V78.8551H1615.77V96.1581ZM1740.12 130.693C1740.12 138.272 1738.83 145.302 1736.26 151.785C1733.73 158.268 1730.13 163.869 1725.46 168.588C1720.84 173.307 1715.26 177.025 1708.73 179.742C1702.2 182.411 1694.95 183.746 1686.99 183.746C1679.03 183.746 1671.79 182.411 1665.26 179.742C1658.73 177.025 1653.12 173.307 1648.45 168.588C1643.78 163.869 1640.16 158.268 1637.59 151.785C1635.06 145.302 1633.8 138.272 1633.8 130.693C1633.8 123.114 1635.06 116.107 1637.59 109.672C1640.16 103.189 1643.78 97.5881 1648.45 92.8691C1653.12 88.1501 1658.73 84.4559 1665.26 81.7866C1671.79 79.0696 1679.03 77.7111 1686.99 77.7111C1694.95 77.7111 1702.2 79.0696 1708.73 81.7866C1715.26 84.4559 1720.84 88.1739 1725.46 92.9406C1730.13 97.6596 1733.73 103.26 1736.26 109.743C1738.83 116.178 1740.12 123.161 1740.12 130.693ZM1718.17 130.693C1718.17 125.259 1717.45 120.397 1716.02 116.107C1714.59 111.769 1712.52 108.099 1709.8 105.096C1707.13 102.045 1703.87 99.7331 1700 98.1601C1696.19 96.5394 1691.85 95.7291 1686.99 95.7291C1682.13 95.7291 1677.77 96.5394 1673.91 98.1601C1670.05 99.7331 1666.76 102.045 1664.04 105.096C1661.37 108.099 1659.32 111.769 1657.89 116.107C1656.46 120.397 1655.75 125.259 1655.75 130.693C1655.75 136.174 1656.46 141.084 1657.89 145.422C1659.32 149.712 1661.37 153.358 1664.04 156.361C1666.76 159.364 1670.05 161.676 1673.91 163.297C1677.77 164.87 1682.13 165.656 1686.99 165.656C1691.85 165.656 1696.19 164.87 1700 163.297C1703.87 161.676 1707.13 159.364 1709.8 156.361C1712.52 153.358 1714.59 149.712 1716.02 145.422C1717.45 141.084 1718.17 136.174 1718.17 130.693ZM1802.54 127.976C1806.02 127.976 1809.03 127.547 1811.55 126.689C1814.08 125.783 1816.15 124.567 1817.77 123.042C1819.39 121.469 1820.58 119.634 1821.35 117.537C1822.11 115.439 1822.49 113.151 1822.49 110.673C1822.49 105.763 1820.85 101.95 1817.56 99.2326C1814.32 96.5156 1809.36 95.1571 1802.69 95.1571H1791.53V127.976H1802.54ZM1852.81 182.602H1833.43C1829.81 182.602 1827.19 181.219 1825.57 178.455L1805.83 146.637C1805.02 145.398 1804.12 144.492 1803.11 143.92C1802.16 143.348 1800.73 143.062 1798.82 143.062H1791.53V182.602H1770.08V78.8551H1802.69C1809.93 78.8551 1816.13 79.6177 1821.28 81.1431C1826.42 82.6207 1830.64 84.6942 1833.93 87.3636C1837.22 90.0329 1839.63 93.2266 1841.15 96.9446C1842.68 100.615 1843.44 104.667 1843.44 109.1C1843.44 112.532 1842.94 115.797 1841.94 118.895C1840.99 121.946 1839.58 124.734 1837.72 127.261C1835.86 129.787 1833.57 132.027 1830.86 133.982C1828.14 135.936 1825.04 137.509 1821.56 138.701C1822.94 139.463 1824.23 140.393 1825.42 141.489C1826.61 142.538 1827.69 143.801 1828.64 145.279L1852.81 182.602ZM1933.45 98.7321C1932.78 99.8284 1932.09 100.639 1931.37 101.163C1930.71 101.64 1929.82 101.878 1928.73 101.878C1927.68 101.878 1926.53 101.521 1925.3 100.806C1924.1 100.043 1922.7 99.2326 1921.08 98.3746C1919.46 97.5166 1917.6 96.7301 1915.5 96.0151C1913.4 95.2524 1910.95 94.8711 1908.14 94.8711C1903.18 94.8711 1899.46 95.9912 1896.98 98.2316C1894.5 100.424 1893.26 103.308 1893.26 106.883C1893.26 109.171 1893.93 111.078 1895.27 112.603C1896.65 114.081 1898.44 115.368 1900.63 116.464C1902.87 117.56 1905.39 118.538 1908.21 119.396C1911.02 120.254 1913.9 121.207 1916.86 122.256C1919.81 123.257 1922.7 124.448 1925.51 125.831C1928.32 127.213 1930.82 128.953 1933.02 131.05C1935.26 133.147 1937.05 135.721 1938.38 138.772C1939.76 141.775 1940.45 145.445 1940.45 149.783C1940.45 154.502 1939.62 158.935 1937.95 163.082C1936.33 167.181 1933.97 170.78 1930.87 173.879C1927.77 176.929 1923.94 179.336 1919.36 181.1C1914.83 182.864 1909.68 183.746 1903.92 183.746C1900.63 183.746 1897.34 183.412 1894.05 182.745C1890.81 182.077 1887.66 181.148 1884.61 179.956C1881.61 178.764 1878.77 177.334 1876.1 175.666C1873.43 173.998 1871.1 172.139 1869.1 170.089L1875.39 159.936C1875.91 159.173 1876.6 158.554 1877.46 158.077C1878.32 157.553 1879.23 157.291 1880.18 157.291C1881.47 157.291 1882.82 157.767 1884.25 158.721C1885.68 159.674 1887.33 160.723 1889.19 161.867C1891.05 163.011 1893.19 164.059 1895.62 165.013C1898.1 165.966 1901.06 166.443 1904.49 166.443C1909.49 166.443 1913.36 165.299 1916.07 163.011C1918.84 160.723 1920.22 157.314 1920.22 152.786C1920.22 150.164 1919.53 148.043 1918.15 146.423C1916.81 144.802 1915.05 143.443 1912.85 142.347C1910.66 141.251 1908.16 140.321 1905.35 139.559C1902.53 138.748 1899.65 137.866 1896.7 136.913C1893.74 135.96 1890.86 134.816 1888.04 133.481C1885.23 132.146 1882.73 130.383 1880.54 128.19C1878.34 125.997 1876.56 123.28 1875.17 120.039C1873.84 116.798 1873.17 112.77 1873.17 107.956C1873.17 104.095 1873.93 100.353 1875.46 96.7301C1876.99 93.1074 1879.23 89.8899 1882.18 87.0776C1885.14 84.2652 1888.76 82.0011 1893.05 80.2851C1897.39 78.5691 1902.34 77.7111 1907.92 77.7111C1914.17 77.7111 1919.93 78.6882 1925.22 80.6426C1930.56 82.5492 1935.07 85.2186 1938.74 88.6506L1933.45 98.7321Z"/>
</mask>
<path d="M881.637 143.205L870.412 111.459C869.744 109.791 869.029 107.836 868.267 105.596C867.552 103.356 866.86 100.925 866.193 98.3031C865.526 100.972 864.811 103.451 864.048 105.739C863.333 107.979 862.642 109.934 861.975 111.602L850.821 143.205H881.637ZM917.673 182.602H901.014C899.155 182.602 897.629 182.173 896.438 181.315C895.294 180.409 894.436 179.265 893.864 177.883L886.857 158.077H845.53L838.523 177.883C838.046 179.074 837.212 180.171 836.02 181.172C834.828 182.125 833.327 182.602 831.516 182.602H814.713L855.254 78.8551H877.204L917.673 182.602ZM981.393 165.442C984.873 165.442 987.995 164.87 990.759 163.726C993.524 162.534 995.86 160.866 997.766 158.721C999.673 156.576 1001.13 153.978 1002.13 150.927C1003.13 147.876 1003.63 144.444 1003.63 140.631V78.8551H1025.08V140.631C1025.08 146.923 1024.05 152.715 1022 158.006C1020 163.249 1017.12 167.777 1013.35 171.591C1009.59 175.404 1005.01 178.383 999.625 180.528C994.239 182.673 988.162 183.746 981.393 183.746C974.624 183.746 968.523 182.673 963.089 180.528C957.703 178.383 953.127 175.404 949.361 171.591C945.595 167.777 942.688 163.249 940.638 158.006C938.636 152.715 937.635 146.923 937.635 140.631V78.8551H959.085V140.631C959.085 144.444 959.585 147.876 960.586 150.927C961.587 153.978 963.041 156.576 964.948 158.721C966.855 160.866 969.19 162.534 971.955 163.726C974.72 164.87 977.866 165.442 981.393 165.442ZM1133.2 96.1581H1102.89V182.602H1081.37V96.1581H1051.05V78.8551H1133.2V96.1581ZM1257.55 130.693C1257.55 138.272 1256.26 145.302 1253.69 151.785C1251.16 158.268 1247.56 163.869 1242.89 168.588C1238.27 173.307 1232.69 177.025 1226.16 179.742C1219.63 182.411 1212.38 183.746 1204.42 183.746C1196.46 183.746 1189.22 182.411 1182.69 179.742C1176.16 177.025 1170.56 173.307 1165.88 168.588C1161.21 163.869 1157.59 158.268 1155.02 151.785C1152.49 145.302 1151.23 138.272 1151.23 130.693C1151.23 123.114 1152.49 116.107 1155.02 109.672C1157.59 103.189 1161.21 97.5881 1165.88 92.8691C1170.56 88.1501 1176.16 84.4559 1182.69 81.7866C1189.22 79.0696 1196.46 77.7111 1204.42 77.7111C1212.38 77.7111 1219.63 79.0696 1226.16 81.7866C1232.69 84.4559 1238.27 88.1739 1242.89 92.9406C1247.56 97.6596 1251.16 103.26 1253.69 109.743C1256.26 116.178 1257.55 123.161 1257.55 130.693ZM1235.6 130.693C1235.6 125.259 1234.88 120.397 1233.45 116.107C1232.02 111.769 1229.95 108.099 1227.23 105.096C1224.56 102.045 1221.3 99.7331 1217.44 98.1601C1213.62 96.5394 1209.28 95.7291 1204.42 95.7291C1199.56 95.7291 1195.2 96.5394 1191.34 98.1601C1187.48 99.7331 1184.19 102.045 1181.47 105.096C1178.8 108.099 1176.75 111.769 1175.32 116.107C1173.89 120.397 1173.18 125.259 1173.18 130.693C1173.18 136.174 1173.89 141.084 1175.32 145.422C1176.75 149.712 1178.8 153.358 1181.47 156.361C1184.19 159.364 1187.48 161.676 1191.34 163.297C1195.2 164.87 1199.56 165.656 1204.42 165.656C1209.28 165.656 1213.62 164.87 1217.44 163.297C1221.3 161.676 1224.56 159.364 1227.23 156.361C1229.95 153.358 1232.02 149.712 1233.45 145.422C1234.88 141.084 1235.6 136.174 1235.6 130.693ZM1401.91 78.8551V182.602H1382.96V118.895C1382.96 117.56 1382.99 116.13 1383.04 114.605C1383.13 113.08 1383.27 111.531 1383.47 109.958L1353.79 166.228C1352.17 169.326 1349.67 170.876 1346.29 170.876H1343.28C1341.61 170.876 1340.14 170.494 1338.85 169.732C1337.56 168.921 1336.54 167.753 1335.77 166.228L1305.96 109.743C1306.1 111.411 1306.22 113.032 1306.32 114.605C1306.41 116.13 1306.46 117.56 1306.46 118.895V182.602H1287.51V78.8551H1303.81C1304.72 78.8551 1305.53 78.8789 1306.25 78.9266C1306.96 78.9742 1307.58 79.1172 1308.1 79.3556C1308.68 79.5462 1309.18 79.8799 1309.61 80.3566C1310.08 80.7856 1310.54 81.4052 1310.96 82.2156L1339.99 137.557C1340.9 139.225 1341.73 140.941 1342.5 142.705C1343.31 144.468 1344.07 146.28 1344.78 148.139C1345.5 146.232 1346.24 144.373 1347 142.562C1347.81 140.75 1348.67 139.01 1349.57 137.342L1378.39 82.2156C1378.82 81.4052 1379.27 80.7856 1379.75 80.3566C1380.22 79.8799 1380.72 79.5462 1381.25 79.3556C1381.82 79.1172 1382.44 78.9742 1383.11 78.9266C1383.82 78.8789 1384.66 78.8551 1385.61 78.8551H1401.91ZM1492.6 143.205L1481.37 111.459C1480.71 109.791 1479.99 107.836 1479.23 105.596C1478.51 103.356 1477.82 100.925 1477.15 98.3031C1476.49 100.972 1475.77 103.451 1475.01 105.739C1474.29 107.979 1473.6 109.934 1472.94 111.602L1461.78 143.205H1492.6ZM1528.63 182.602H1511.98C1510.12 182.602 1508.59 182.173 1507.4 181.315C1506.26 180.409 1505.4 179.265 1504.83 177.883L1497.82 158.077H1456.49L1449.48 177.883C1449.01 179.074 1448.17 180.171 1446.98 181.172C1445.79 182.125 1444.29 182.602 1442.48 182.602H1425.67L1466.22 78.8551H1488.17L1528.63 182.602ZM1615.77 96.1581H1585.46V182.602H1563.94V96.1581H1533.62V78.8551H1615.77V96.1581ZM1740.12 130.693C1740.12 138.272 1738.83 145.302 1736.26 151.785C1733.73 158.268 1730.13 163.869 1725.46 168.588C1720.84 173.307 1715.26 177.025 1708.73 179.742C1702.2 182.411 1694.95 183.746 1686.99 183.746C1679.03 183.746 1671.79 182.411 1665.26 179.742C1658.73 177.025 1653.12 173.307 1648.45 168.588C1643.78 163.869 1640.16 158.268 1637.59 151.785C1635.06 145.302 1633.8 138.272 1633.8 130.693C1633.8 123.114 1635.06 116.107 1637.59 109.672C1640.16 103.189 1643.78 97.5881 1648.45 92.8691C1653.12 88.1501 1658.73 84.4559 1665.26 81.7866C1671.79 79.0696 1679.03 77.7111 1686.99 77.7111C1694.95 77.7111 1702.2 79.0696 1708.73 81.7866C1715.26 84.4559 1720.84 88.1739 1725.46 92.9406C1730.13 97.6596 1733.73 103.26 1736.26 109.743C1738.83 116.178 1740.12 123.161 1740.12 130.693ZM1718.17 130.693C1718.17 125.259 1717.45 120.397 1716.02 116.107C1714.59 111.769 1712.52 108.099 1709.8 105.096C1707.13 102.045 1703.87 99.7331 1700 98.1601C1696.19 96.5394 1691.85 95.7291 1686.99 95.7291C1682.13 95.7291 1677.77 96.5394 1673.91 98.1601C1670.05 99.7331 1666.76 102.045 1664.04 105.096C1661.37 108.099 1659.32 111.769 1657.89 116.107C1656.46 120.397 1655.75 125.259 1655.75 130.693C1655.75 136.174 1656.46 141.084 1657.89 145.422C1659.32 149.712 1661.37 153.358 1664.04 156.361C1666.76 159.364 1670.05 161.676 1673.91 163.297C1677.77 164.87 1682.13 165.656 1686.99 165.656C1691.85 165.656 1696.19 164.87 1700 163.297C1703.87 161.676 1707.13 159.364 1709.8 156.361C1712.52 153.358 1714.59 149.712 1716.02 145.422C1717.45 141.084 1718.17 136.174 1718.17 130.693ZM1802.54 127.976C1806.02 127.976 1809.03 127.547 1811.55 126.689C1814.08 125.783 1816.15 124.567 1817.77 123.042C1819.39 121.469 1820.58 119.634 1821.35 117.537C1822.11 115.439 1822.49 113.151 1822.49 110.673C1822.49 105.763 1820.85 101.95 1817.56 99.2326C1814.32 96.5156 1809.36 95.1571 1802.69 95.1571H1791.53V127.976H1802.54ZM1852.81 182.602H1833.43C1829.81 182.602 1827.19 181.219 1825.57 178.455L1805.83 146.637C1805.02 145.398 1804.12 144.492 1803.11 143.92C1802.16 143.348 1800.73 143.062 1798.82 143.062H1791.53V182.602H1770.08V78.8551H1802.69C1809.93 78.8551 1816.13 79.6177 1821.28 81.1431C1826.42 82.6207 1830.64 84.6942 1833.93 87.3636C1837.22 90.0329 1839.63 93.2266 1841.15 96.9446C1842.68 100.615 1843.44 104.667 1843.44 109.1C1843.44 112.532 1842.94 115.797 1841.94 118.895C1840.99 121.946 1839.58 124.734 1837.72 127.261C1835.86 129.787 1833.57 132.027 1830.86 133.982C1828.14 135.936 1825.04 137.509 1821.56 138.701C1822.94 139.463 1824.23 140.393 1825.42 141.489C1826.61 142.538 1827.69 143.801 1828.64 145.279L1852.81 182.602ZM1933.45 98.7321C1932.78 99.8284 1932.09 100.639 1931.37 101.163C1930.71 101.64 1929.82 101.878 1928.73 101.878C1927.68 101.878 1926.53 101.521 1925.3 100.806C1924.1 100.043 1922.7 99.2326 1921.08 98.3746C1919.46 97.5166 1917.6 96.7301 1915.5 96.0151C1913.4 95.2524 1910.95 94.8711 1908.14 94.8711C1903.18 94.8711 1899.46 95.9912 1896.98 98.2316C1894.5 100.424 1893.26 103.308 1893.26 106.883C1893.26 109.171 1893.93 111.078 1895.27 112.603C1896.65 114.081 1898.44 115.368 1900.63 116.464C1902.87 117.56 1905.39 118.538 1908.21 119.396C1911.02 120.254 1913.9 121.207 1916.86 122.256C1919.81 123.257 1922.7 124.448 1925.51 125.831C1928.32 127.213 1930.82 128.953 1933.02 131.05C1935.26 133.147 1937.05 135.721 1938.38 138.772C1939.76 141.775 1940.45 145.445 1940.45 149.783C1940.45 154.502 1939.62 158.935 1937.95 163.082C1936.33 167.181 1933.97 170.78 1930.87 173.879C1927.77 176.929 1923.94 179.336 1919.36 181.1C1914.83 182.864 1909.68 183.746 1903.92 183.746C1900.63 183.746 1897.34 183.412 1894.05 182.745C1890.81 182.077 1887.66 181.148 1884.61 179.956C1881.61 178.764 1878.77 177.334 1876.1 175.666C1873.43 173.998 1871.1 172.139 1869.1 170.089L1875.39 159.936C1875.91 159.173 1876.6 158.554 1877.46 158.077C1878.32 157.553 1879.23 157.291 1880.18 157.291C1881.47 157.291 1882.82 157.767 1884.25 158.721C1885.68 159.674 1887.33 160.723 1889.19 161.867C1891.05 163.011 1893.19 164.059 1895.62 165.013C1898.1 165.966 1901.06 166.443 1904.49 166.443C1909.49 166.443 1913.36 165.299 1916.07 163.011C1918.84 160.723 1920.22 157.314 1920.22 152.786C1920.22 150.164 1919.53 148.043 1918.15 146.423C1916.81 144.802 1915.05 143.443 1912.85 142.347C1910.66 141.251 1908.16 140.321 1905.35 139.559C1902.53 138.748 1899.65 137.866 1896.7 136.913C1893.74 135.96 1890.86 134.816 1888.04 133.481C1885.23 132.146 1882.73 130.383 1880.54 128.19C1878.34 125.997 1876.56 123.28 1875.17 120.039C1873.84 116.798 1873.17 112.77 1873.17 107.956C1873.17 104.095 1873.93 100.353 1875.46 96.7301C1876.99 93.1074 1879.23 89.8899 1882.18 87.0776C1885.14 84.2652 1888.76 82.0011 1893.05 80.2851C1897.39 78.5691 1902.34 77.7111 1907.92 77.7111C1914.17 77.7111 1919.93 78.6882 1925.22 80.6426C1930.56 82.5492 1935.07 85.2186 1938.74 88.6506L1933.45 98.7321Z" fill="#131313"/>
<path d="M881.637 143.205V146.205H885.88L884.465 142.205L881.637 143.205ZM870.412 111.459L873.24 110.459L873.22 110.401L873.197 110.345L870.412 111.459ZM868.266 105.596L865.409 106.508L865.417 106.536L865.427 106.563L868.266 105.596ZM866.193 98.3031L869.1 97.563L863.283 97.5755L866.193 98.3031ZM864.048 105.739L861.202 104.79L861.196 104.809L861.19 104.827L864.048 105.739ZM861.974 111.602L859.189 110.488L859.166 110.545L859.146 110.604L861.974 111.602ZM850.82 143.205L847.992 142.207L846.58 146.205H850.82V143.205ZM917.673 182.602V185.602H922.063L920.468 181.511L917.673 182.602ZM896.438 181.315L894.575 183.667L894.629 183.709L894.685 183.749L896.438 181.315ZM893.864 177.883L891.035 178.883L891.061 178.957L891.091 179.03L893.864 177.883ZM886.857 158.077L889.685 157.076L888.977 155.077H886.857V158.077ZM845.53 158.077V155.077H843.409L842.701 157.076L845.53 158.077ZM838.523 177.883L841.308 178.997L841.33 178.94L841.351 178.883L838.523 177.883ZM836.02 181.172L837.894 183.514L837.922 183.492L837.95 183.469L836.02 181.172ZM814.713 182.602L811.919 181.51L810.32 185.602H814.713V182.602ZM855.254 78.8551V75.8551H853.205L852.459 77.7632L855.254 78.8551ZM877.204 78.8551L879.999 77.7648L879.254 75.8551H877.204V78.8551ZM881.637 143.205L884.465 142.205L873.24 110.459L870.412 111.459L867.583 112.459L878.809 144.205L881.637 143.205ZM870.412 111.459L873.197 110.345C872.554 108.738 871.857 106.835 871.106 104.629L868.266 105.596L865.427 106.563C866.201 108.838 866.934 110.844 867.626 112.573L870.412 111.459ZM868.266 105.596L871.124 104.684C870.43 102.508 869.755 100.135 869.1 97.563L866.193 98.3031L863.286 99.0431C863.966 101.714 864.673 104.203 865.409 106.508L868.266 105.596ZM866.193 98.3031L863.283 97.5755C862.631 100.18 861.937 102.584 861.202 104.79L864.048 105.739L866.894 106.688C867.684 104.318 868.42 101.764 869.103 99.0307L866.193 98.3031ZM864.048 105.739L861.19 104.827C860.491 107.019 859.823 108.903 859.189 110.488L861.974 111.602L864.76 112.716C865.46 110.965 866.175 108.94 866.906 106.651L864.048 105.739ZM861.974 111.602L859.146 110.604L847.992 142.207L850.82 143.205L853.649 144.204L864.803 112.601L861.974 111.602ZM850.82 143.205V146.205H881.637V143.205V140.205H850.82V143.205ZM917.673 182.602V179.602H901.014V182.602V185.602H917.673V182.602ZM901.014 182.602V179.602C899.615 179.602 898.75 179.283 898.19 178.88L896.438 181.315L894.685 183.749C896.508 185.062 898.694 185.602 901.014 185.602V182.602ZM896.438 181.315L898.3 178.962C897.567 178.383 897.017 177.658 896.636 176.736L893.864 177.883L891.091 179.03C891.854 180.872 893.02 182.435 894.575 183.667L896.438 181.315ZM893.864 177.883L896.692 176.882L889.685 157.076L886.857 158.077L884.028 159.078L891.035 178.883L893.864 177.883ZM886.857 158.077V155.077H845.53V158.077V161.077H886.857V158.077ZM845.53 158.077L842.701 157.076L835.694 176.882L838.523 177.883L841.351 178.883L848.358 159.078L845.53 158.077ZM838.523 177.883L835.737 176.768C835.479 177.413 834.983 178.124 834.09 178.874L836.02 181.172L837.95 183.469C839.44 182.217 840.613 180.735 841.308 178.997L838.523 177.883ZM836.02 181.172L834.146 178.829C833.581 179.281 832.778 179.602 831.516 179.602V182.602V185.602C833.876 185.602 836.076 184.969 837.894 183.514L836.02 181.172ZM831.516 182.602V179.602H814.713V182.602V185.602H831.516V182.602ZM814.713 182.602L817.507 183.693L858.048 79.9469L855.254 78.8551L852.459 77.7632L811.919 181.51L814.713 182.602ZM855.254 78.8551V81.8551H877.204V78.8551V75.8551H855.254V78.8551ZM877.204 78.8551L874.409 79.9453L914.878 183.692L917.673 182.602L920.468 181.511L879.999 77.7648L877.204 78.8551ZM990.759 163.726L991.906 166.498L991.927 166.489L991.947 166.481L990.759 163.726ZM997.766 158.721L995.524 156.727V156.727L997.766 158.721ZM1002.13 150.927L999.277 149.992V149.992L1002.13 150.927ZM1003.63 78.8551V75.8551H1000.63V78.8551H1003.63ZM1025.08 78.8551H1028.08V75.8551H1025.08V78.8551ZM1022 158.006L1019.21 156.922L1019.2 156.929L1019.2 156.935L1022 158.006ZM1013.35 171.591L1011.22 169.483V169.483L1013.35 171.591ZM999.625 180.528L998.515 177.741V177.741L999.625 180.528ZM963.089 180.528L961.979 183.315L961.987 183.319L963.089 180.528ZM949.361 171.591L951.496 169.483V169.483L949.361 171.591ZM940.638 158.006L937.832 159.067L937.838 159.083L937.844 159.098L940.638 158.006ZM937.635 78.8551V75.8551H934.635V78.8551H937.635ZM959.085 78.8551H962.085V75.8551H959.085V78.8551ZM964.948 158.721L967.19 156.727V156.727L964.948 158.721ZM971.955 163.726L970.767 166.481L970.788 166.489L970.808 166.498L971.955 163.726ZM981.393 165.442V168.442C985.203 168.442 988.724 167.815 991.906 166.498L990.759 163.726L989.612 160.954C987.266 161.925 984.542 162.442 981.393 162.442V165.442ZM990.759 163.726L991.947 166.481C995.094 165.124 997.796 163.203 1000.01 160.714L997.766 158.721L995.524 156.727C993.923 158.528 991.954 159.944 989.572 160.971L990.759 163.726ZM997.766 158.721L1000.01 160.714C1002.22 158.227 1003.86 155.257 1004.98 151.862L1002.13 150.927L999.277 149.992C998.389 152.698 997.127 154.924 995.524 156.727L997.766 158.721ZM1002.13 150.927L1004.98 151.862C1006.1 148.459 1006.63 144.704 1006.63 140.631H1003.63H1000.63C1000.63 144.185 1000.16 147.293 999.277 149.992L1002.13 150.927ZM1003.63 140.631H1006.63V78.8551H1003.63H1000.63V140.631H1003.63ZM1003.63 78.8551V81.8551H1025.08V78.8551V75.8551H1003.63V78.8551ZM1025.08 78.8551H1022.08V140.631H1025.08H1028.08V78.8551H1025.08ZM1025.08 140.631H1022.08C1022.08 146.593 1021.11 152.012 1019.21 156.922L1022 158.006L1024.8 159.089C1027 153.417 1028.08 147.253 1028.08 140.631H1025.08ZM1022 158.006L1019.2 156.935C1017.34 161.809 1014.68 165.979 1011.22 169.483L1013.35 171.591L1015.49 173.699C1019.56 169.575 1022.66 164.689 1024.81 159.076L1022 158.006ZM1013.35 171.591L1011.22 169.483C1007.77 172.978 1003.55 175.736 998.515 177.741L999.625 180.528L1000.74 183.315C1006.47 181.03 1011.41 177.83 1015.49 173.699L1013.35 171.591ZM999.625 180.528L998.515 177.741C993.536 179.724 987.844 180.746 981.393 180.746V183.746V186.746C988.479 186.746 994.942 185.622 1000.74 183.315L999.625 180.528ZM981.393 183.746V180.746C974.942 180.746 969.223 179.724 964.19 177.738L963.089 180.528L961.987 183.319C967.823 185.622 974.306 186.746 981.393 186.746V183.746ZM963.089 180.528L964.199 177.741C959.165 175.736 954.947 172.978 951.496 169.483L949.361 171.591L947.226 173.699C951.306 177.83 956.24 181.03 961.979 183.315L963.089 180.528ZM949.361 171.591L951.496 169.483C948.031 165.974 945.341 161.796 943.432 156.913L940.638 158.006L937.844 159.098C940.034 164.701 943.16 169.58 947.226 173.699L949.361 171.591ZM940.638 158.006L943.444 156.944C941.584 152.028 940.635 146.601 940.635 140.631H937.635H934.635C934.635 147.245 935.688 153.401 937.832 159.067L940.638 158.006ZM937.635 140.631H940.635V78.8551H937.635H934.635V140.631H937.635ZM937.635 78.8551V81.8551H959.085V78.8551V75.8551H937.635V78.8551ZM959.085 78.8551H956.085V140.631H959.085H962.085V78.8551H959.085ZM959.085 140.631H956.085C956.085 144.704 956.619 148.459 957.736 151.862L960.586 150.927L963.437 149.992C962.552 147.293 962.085 144.185 962.085 140.631H959.085ZM960.586 150.927L957.736 151.862C958.85 155.257 960.495 158.227 962.706 160.714L964.948 158.721L967.19 156.727C965.587 154.924 964.325 152.698 963.437 149.992L960.586 150.927ZM964.948 158.721L962.706 160.714C964.918 163.203 967.62 165.124 970.767 166.481L971.955 163.726L973.142 160.971C970.761 159.944 968.791 158.528 967.19 156.727L964.948 158.721ZM971.955 163.726L970.808 166.498C973.995 167.817 977.541 168.442 981.393 168.442V165.442V162.442C978.19 162.442 975.444 161.923 973.102 160.954L971.955 163.726ZM1133.2 96.1581V99.1581H1136.2V96.1581H1133.2ZM1102.89 96.1581V93.1581H1099.89V96.1581H1102.89ZM1102.89 182.602V185.602H1105.89V182.602H1102.89ZM1081.37 182.602H1078.37V185.602H1081.37V182.602ZM1081.37 96.1581H1084.37V93.1581H1081.37V96.1581ZM1051.05 96.1581H1048.05V99.1581H1051.05V96.1581ZM1051.05 78.8551V75.8551H1048.05V78.8551H1051.05ZM1133.2 78.8551H1136.2V75.8551H1133.2V78.8551ZM1133.2 96.1581V93.1581H1102.89V96.1581V99.1581H1133.2V96.1581ZM1102.89 96.1581H1099.89V182.602H1102.89H1105.89V96.1581H1102.89ZM1102.89 182.602V179.602H1081.37V182.602V185.602H1102.89V182.602ZM1081.37 182.602H1084.37V96.1581H1081.37H1078.37V182.602H1081.37ZM1081.37 96.1581V93.1581H1051.05V96.1581V99.1581H1081.37V96.1581ZM1051.05 96.1581H1054.05V78.8551H1051.05H1048.05V96.1581H1051.05ZM1051.05 78.8551V81.8551H1133.2V78.8551V75.8551H1051.05V78.8551ZM1133.2 78.8551H1130.2V96.1581H1133.2H1136.2V78.8551H1133.2ZM1253.69 151.785L1250.9 150.678L1250.89 150.687L1250.89 150.696L1253.69 151.785ZM1242.89 168.588L1240.76 166.477L1240.75 166.483L1240.75 166.488L1242.89 168.588ZM1226.16 179.742L1227.29 182.519L1227.3 182.515L1227.31 182.511L1226.16 179.742ZM1182.69 179.742L1181.53 182.511L1181.54 182.515L1181.55 182.519L1182.69 179.742ZM1165.88 168.588L1168.02 166.477V166.477L1165.88 168.588ZM1155.02 151.785L1152.22 152.874L1152.22 152.883L1152.23 152.892L1155.02 151.785ZM1155.02 109.672L1152.23 108.564L1152.22 108.575L1155.02 109.672ZM1165.88 92.8691L1163.75 90.7585V90.7585L1165.88 92.8691ZM1182.69 81.7866L1183.82 84.5635L1183.83 84.56L1183.84 84.5564L1182.69 81.7866ZM1226.16 81.7866L1225.01 84.5564L1225.01 84.56L1225.02 84.5635L1226.16 81.7866ZM1242.89 92.9406L1240.74 95.0293L1240.75 95.0403L1240.76 95.0511L1242.89 92.9406ZM1253.69 109.743L1250.89 110.832L1250.9 110.845L1250.9 110.857L1253.69 109.743ZM1233.45 116.107L1230.6 117.046L1230.61 117.055L1233.45 116.107ZM1227.23 105.096L1224.97 107.071L1224.99 107.09L1225.01 107.108L1227.23 105.096ZM1217.44 98.1601L1216.26 100.921L1216.28 100.93L1216.3 100.938L1217.44 98.1601ZM1191.34 98.1601L1192.47 100.938L1192.48 100.932L1192.5 100.926L1191.34 98.1601ZM1181.47 105.096L1179.23 103.1L1179.23 103.102L1181.47 105.096ZM1175.32 116.107L1178.17 117.055L1178.17 117.046L1175.32 116.107ZM1175.32 145.422L1172.47 146.361L1172.48 146.37L1175.32 145.422ZM1181.47 156.361L1179.23 158.354L1179.24 158.364L1179.25 158.374L1181.47 156.361ZM1191.34 163.297L1190.18 166.063L1190.19 166.069L1190.21 166.075L1191.34 163.297ZM1217.44 163.297L1218.58 166.07L1218.59 166.066L1218.6 166.063L1217.44 163.297ZM1227.23 156.361L1225.01 154.348L1225 154.358L1224.99 154.368L1227.23 156.361ZM1233.45 145.422L1236.3 146.37L1236.3 146.361L1233.45 145.422ZM1257.55 130.693H1254.55C1254.55 137.925 1253.32 144.577 1250.9 150.678L1253.69 151.785L1256.47 152.892C1259.2 146.028 1260.55 138.618 1260.55 130.693H1257.55ZM1253.69 151.785L1250.89 150.696C1248.51 156.815 1245.13 162.063 1240.76 166.477L1242.89 168.588L1245.02 170.698C1250 165.674 1253.81 159.721 1256.48 152.874L1253.69 151.785ZM1242.89 168.588L1240.75 166.488C1236.42 170.899 1231.19 174.398 1225.01 176.972L1226.16 179.742L1227.31 182.511C1234.19 179.651 1240.11 175.714 1245.03 170.687L1242.89 168.588ZM1226.16 179.742L1225.02 176.965C1218.9 179.469 1212.04 180.746 1204.42 180.746V183.746V186.746C1212.72 186.746 1220.36 185.353 1227.29 182.519L1226.16 179.742ZM1204.42 183.746V180.746C1196.8 180.746 1189.95 179.469 1183.82 176.965L1182.69 179.742L1181.55 182.519C1188.49 185.353 1196.12 186.746 1204.42 186.746V183.746ZM1182.69 179.742L1183.84 176.972C1177.65 174.397 1172.39 170.895 1168.02 166.477L1165.88 168.588L1163.75 170.698C1168.72 175.718 1174.66 179.652 1181.53 182.511L1182.69 179.742ZM1165.88 168.588L1168.02 166.477C1163.64 162.059 1160.24 156.805 1157.8 150.678L1155.02 151.785L1152.23 152.892C1154.94 159.731 1158.78 165.678 1163.75 170.698L1165.88 168.588ZM1155.02 151.785L1157.81 150.696C1155.43 144.59 1154.23 137.932 1154.23 130.693H1151.23H1148.23C1148.23 138.611 1149.55 146.015 1152.22 152.874L1155.02 151.785ZM1151.23 130.693H1154.23C1154.23 123.453 1155.43 116.821 1157.81 110.768L1155.02 109.672L1152.22 108.575C1149.55 115.392 1148.23 122.775 1148.23 130.693H1151.23ZM1155.02 109.672L1157.8 110.779C1160.24 104.652 1163.64 99.3973 1168.02 94.9796L1165.88 92.8691L1163.75 90.7585C1158.78 95.7788 1154.94 101.726 1152.23 108.564L1155.02 109.672ZM1165.88 92.8691L1168.02 94.9796C1172.39 90.5652 1177.64 87.0898 1183.82 84.5635L1182.69 81.7866L1181.55 79.0096C1174.67 81.822 1168.72 85.7349 1163.75 90.7585L1165.88 92.8691ZM1182.69 81.7866L1183.84 84.5564C1189.96 82.0093 1196.81 80.7111 1204.42 80.7111V77.7111V74.7111C1196.12 74.7111 1188.47 76.1299 1181.53 79.0167L1182.69 81.7866ZM1204.42 77.7111V80.7111C1212.04 80.7111 1218.88 82.0093 1225.01 84.5564L1226.16 81.7866L1227.31 79.0167C1220.37 76.1299 1212.73 74.7111 1204.42 74.7111V77.7111ZM1226.16 81.7866L1225.02 84.5635C1231.19 87.0861 1236.42 90.5782 1240.74 95.0293L1242.89 92.9406L1245.04 90.8518C1240.11 85.7696 1234.18 81.8257 1227.29 79.0096L1226.16 81.7866ZM1242.89 92.9406L1240.76 95.0511C1245.13 99.4647 1248.51 104.713 1250.89 110.832L1253.69 109.743L1256.48 108.654C1253.81 101.808 1250 95.8544 1245.02 90.83L1242.89 92.9406ZM1253.69 109.743L1250.9 110.857C1253.32 116.908 1254.55 123.51 1254.55 130.693H1257.55H1260.55C1260.55 122.813 1259.2 115.448 1256.47 108.629L1253.69 109.743ZM1235.6 130.693H1238.6C1238.6 124.999 1237.85 119.808 1236.3 115.158L1233.45 116.107L1230.61 117.055C1231.92 120.985 1232.6 125.518 1232.6 130.693H1235.6ZM1233.45 116.107L1236.3 115.167C1234.76 110.483 1232.49 106.434 1229.46 103.083L1227.23 105.096L1225.01 107.108C1227.41 109.764 1229.29 113.055 1230.6 117.046L1233.45 116.107ZM1227.23 105.096L1229.49 103.12C1226.5 99.7076 1222.85 97.1259 1218.57 95.3818L1217.44 98.1601L1216.3 100.938C1219.74 102.34 1222.62 104.382 1224.97 107.071L1227.23 105.096ZM1217.44 98.1601L1218.61 95.3991C1214.37 93.5958 1209.62 92.7291 1204.42 92.7291V95.7291V98.7291C1208.95 98.7291 1212.88 99.483 1216.26 100.921L1217.44 98.1601ZM1204.42 95.7291V92.7291C1199.23 92.7291 1194.46 93.5961 1190.18 95.3939L1191.34 98.1601L1192.5 100.926C1195.94 99.4827 1199.9 98.7291 1204.42 98.7291V95.7291ZM1191.34 98.1601L1190.21 95.3818C1185.93 97.124 1182.26 99.7002 1179.23 103.1L1181.47 105.096L1183.71 107.091C1186.12 104.39 1189.02 102.342 1192.47 100.938L1191.34 98.1601ZM1181.47 105.096L1179.23 103.102C1176.25 106.451 1174.01 110.494 1172.47 115.167L1175.32 116.107L1178.17 117.046C1179.49 113.044 1181.35 109.746 1183.71 107.089L1181.47 105.096ZM1175.32 116.107L1172.48 115.158C1170.93 119.808 1170.18 124.999 1170.18 130.693H1173.18H1176.18C1176.18 125.518 1176.86 120.985 1178.17 117.055L1175.32 116.107ZM1173.18 130.693H1170.18C1170.18 136.431 1170.93 141.666 1172.47 146.361L1175.32 145.422L1178.17 144.482C1176.86 140.501 1176.18 135.917 1176.18 130.693H1173.18ZM1175.32 145.422L1172.48 146.37C1174.02 150.997 1176.26 155.012 1179.23 158.354L1181.47 156.361L1183.71 154.368C1181.35 151.705 1179.49 148.426 1178.17 144.473L1175.32 145.422ZM1181.47 156.361L1179.25 158.374C1182.27 161.714 1185.92 164.278 1190.18 166.063L1191.34 163.297L1192.5 160.53C1189.03 159.074 1186.11 157.014 1183.7 154.348L1181.47 156.361ZM1191.34 163.297L1190.21 166.075C1194.48 167.816 1199.24 168.656 1204.42 168.656V165.656V162.656C1199.89 162.656 1195.92 161.923 1192.47 160.518L1191.34 163.297ZM1204.42 165.656V168.656C1209.61 168.656 1214.34 167.817 1218.58 166.07L1217.44 163.297L1216.29 160.523C1212.9 161.922 1208.96 162.656 1204.42 162.656V165.656ZM1217.44 163.297L1218.6 166.063C1222.85 164.276 1226.49 161.707 1229.47 158.354L1227.23 156.361L1224.99 154.368C1222.63 157.021 1219.74 159.076 1216.27 160.53L1217.44 163.297ZM1227.23 156.361L1229.46 158.374C1232.48 155.029 1234.75 151.008 1236.3 146.37L1233.45 145.422L1230.61 144.473C1229.29 148.415 1227.41 151.687 1225.01 154.348L1227.23 156.361ZM1233.45 145.422L1236.3 146.361C1237.85 141.666 1238.6 136.431 1238.6 130.693H1235.6H1232.6C1232.6 135.917 1231.91 140.501 1230.6 144.482L1233.45 145.422ZM1401.91 78.8551H1404.91V75.8551H1401.91V78.8551ZM1401.91 182.602V185.602H1404.91V182.602H1401.91ZM1382.96 182.602H1379.96V185.602H1382.96V182.602ZM1383.04 114.605L1380.04 114.418L1380.04 114.465L1380.04 114.511L1383.04 114.605ZM1383.47 109.958L1386.44 110.319L1380.81 108.558L1383.47 109.958ZM1353.79 166.228L1351.14 164.829L1351.13 164.838L1353.79 166.228ZM1338.85 169.732L1337.25 172.27L1337.29 172.292L1337.32 172.312L1338.85 169.732ZM1335.77 166.228L1338.46 164.886L1338.44 164.857L1338.43 164.828L1335.77 166.228ZM1305.96 109.743L1308.61 108.343L1302.97 109.999L1305.96 109.743ZM1306.32 114.605L1303.32 114.787L1303.32 114.792L1306.32 114.605ZM1306.46 182.602V185.602H1309.46V182.602H1306.46ZM1287.51 182.602H1284.51V185.602H1287.51V182.602ZM1287.51 78.8551V75.8551H1284.51V78.8551H1287.51ZM1306.25 78.9266L1306.05 81.9199H1306.05L1306.25 78.9266ZM1308.1 79.3556L1306.86 82.0867L1307.01 82.1518L1307.16 82.2016L1308.1 79.3556ZM1309.61 80.3566L1307.38 82.3635L1307.48 82.4808L1307.6 82.5864L1309.61 80.3566ZM1310.96 82.2156L1313.62 80.822L1313.62 80.8119L1310.96 82.2156ZM1339.99 137.557L1337.34 138.95L1337.35 138.969L1337.36 138.988L1339.99 137.557ZM1342.5 142.705L1339.74 143.895L1339.76 143.926L1339.77 143.957L1342.5 142.705ZM1344.78 148.139L1341.98 149.215L1344.82 156.588L1347.59 149.192L1344.78 148.139ZM1347 142.562L1344.26 141.336L1344.25 141.367L1344.24 141.397L1347 142.562ZM1349.57 137.342L1352.21 138.773L1352.22 138.753L1352.23 138.732L1349.57 137.342ZM1378.39 82.2156L1375.74 80.8119L1375.73 80.8189L1375.73 80.8259L1378.39 82.2156ZM1379.75 80.3566L1381.75 82.5864L1381.81 82.5337L1381.87 82.4779L1379.75 80.3566ZM1381.25 79.3556L1382.27 82.1749L1382.34 82.1513L1382.4 82.1248L1381.25 79.3556ZM1383.11 78.9266L1382.91 75.9332L1382.9 75.9337L1382.89 75.9342L1383.11 78.9266ZM1401.91 78.8551H1398.91V182.602H1401.91H1404.91V78.8551H1401.91ZM1401.91 182.602V179.602H1382.96V182.602V185.602H1401.91V182.602ZM1382.96 182.602H1385.96V118.895H1382.96H1379.96V182.602H1382.96ZM1382.96 118.895H1385.96C1385.96 117.596 1385.99 116.197 1386.03 114.699L1383.04 114.605L1380.04 114.511C1379.99 116.064 1379.96 117.525 1379.96 118.895H1382.96ZM1383.04 114.605L1386.03 114.792C1386.12 113.327 1386.26 111.836 1386.44 110.319L1383.47 109.958L1380.49 109.597C1380.29 111.225 1380.14 112.832 1380.04 114.418L1383.04 114.605ZM1383.47 109.958L1380.81 108.558L1351.14 164.829L1353.79 166.228L1356.45 167.627L1386.12 111.357L1383.47 109.958ZM1353.79 166.228L1351.13 164.838C1350.53 166 1349.84 166.721 1349.12 167.163C1348.41 167.602 1347.5 167.876 1346.29 167.876V170.876V173.876C1348.45 173.876 1350.49 173.375 1352.28 172.264C1354.07 171.158 1355.44 169.554 1356.45 167.619L1353.79 166.228ZM1346.29 170.876V167.876H1343.28V170.876V173.876H1346.29V170.876ZM1343.28 170.876V167.876C1342.09 167.876 1341.15 167.608 1340.38 167.151L1338.85 169.732L1337.32 172.312C1339.12 173.38 1341.14 173.876 1343.28 173.876V170.876ZM1338.85 169.732L1340.45 167.193C1339.68 166.709 1339.01 165.982 1338.46 164.886L1335.77 166.228L1333.09 167.57C1334.07 169.525 1335.45 171.133 1337.25 172.27L1338.85 169.732ZM1335.77 166.228L1338.43 164.828L1308.61 108.343L1305.96 109.743L1303.31 111.143L1333.12 167.628L1335.77 166.228ZM1305.96 109.743L1302.97 109.999C1303.11 111.644 1303.23 113.24 1303.32 114.787L1306.32 114.605L1309.31 114.424C1309.21 112.824 1309.09 111.179 1308.95 109.487L1305.96 109.743ZM1306.32 114.605L1303.32 114.792C1303.41 116.264 1303.46 117.631 1303.46 118.895H1306.46H1309.46C1309.46 117.49 1309.41 115.997 1309.31 114.418L1306.32 114.605ZM1306.46 118.895H1303.46V182.602H1306.46H1309.46V118.895H1306.46ZM1306.46 182.602V179.602H1287.51V182.602V185.602H1306.46V182.602ZM1287.51 182.602H1290.51V78.8551H1287.51H1284.51V182.602H1287.51ZM1287.51 78.8551V81.8551H1303.81V78.8551V75.8551H1287.51V78.8551ZM1303.81 78.8551V81.8551C1304.67 81.8551 1305.41 81.8776 1306.05 81.9199L1306.25 78.9266L1306.44 75.9332C1305.65 75.8801 1304.77 75.8551 1303.81 75.8551V78.8551ZM1306.25 78.9266L1306.05 81.9199C1306.49 81.9492 1306.74 82.0292 1306.86 82.0867L1308.1 79.3556L1309.35 76.6245C1308.42 76.2052 1307.44 75.9992 1306.44 75.9332L1306.25 78.9266ZM1308.1 79.3556L1307.16 82.2016C1307.2 82.2176 1307.27 82.2472 1307.38 82.3635L1309.61 80.3566L1311.84 78.3497C1311.08 77.5126 1310.15 76.8748 1309.05 76.5095L1308.1 79.3556ZM1309.61 80.3566L1307.6 82.5864C1307.73 82.7023 1307.98 82.9974 1308.31 83.6192L1310.96 82.2156L1313.62 80.8119C1313.09 79.813 1312.44 78.8688 1311.61 78.1267L1309.61 80.3566ZM1310.96 82.2156L1308.31 83.6091L1337.34 138.95L1339.99 137.557L1342.65 136.163L1313.62 80.822L1310.96 82.2156ZM1339.99 137.557L1337.36 138.988C1338.22 140.577 1339.01 142.213 1339.74 143.895L1342.5 142.705L1345.25 141.514C1344.45 139.669 1343.58 137.873 1342.63 136.125L1339.99 137.557ZM1342.5 142.705L1339.77 143.957C1340.55 145.662 1341.29 147.414 1341.98 149.215L1344.78 148.139L1347.58 147.062C1346.85 145.145 1346.06 143.275 1345.22 141.452L1342.5 142.705ZM1344.78 148.139L1347.59 149.192C1348.29 147.321 1349.02 145.499 1349.77 143.726L1347 142.562L1344.24 141.397C1343.46 143.247 1342.7 145.143 1341.97 147.085L1344.78 148.139ZM1347 142.562L1349.74 143.787C1350.52 142.042 1351.34 140.371 1352.21 138.773L1349.57 137.342L1346.94 135.911C1345.99 137.649 1345.1 139.458 1344.26 141.336L1347 142.562ZM1349.57 137.342L1352.23 138.732L1381.05 83.6053L1378.39 82.2156L1375.73 80.8259L1346.92 135.952L1349.57 137.342ZM1378.39 82.2156L1381.04 83.6192C1381.37 82.9974 1381.63 82.7023 1381.75 82.5864L1379.75 80.3566L1377.74 78.1267C1376.92 78.8688 1376.27 79.813 1375.74 80.8119L1378.39 82.2156ZM1379.75 80.3566L1381.87 82.4779C1382.1 82.2477 1382.24 82.1879 1382.27 82.1749L1381.25 79.3556L1380.22 76.5362C1379.21 76.9046 1378.35 77.5121 1377.63 78.2352L1379.75 80.3566ZM1381.25 79.3556L1382.4 82.1248C1382.65 82.0207 1382.95 81.9453 1383.32 81.9189L1383.11 78.9266L1382.89 75.9342C1381.93 76.0031 1380.99 76.2137 1380.1 76.5863L1381.25 79.3556ZM1383.11 78.9266L1383.31 81.9199C1383.94 81.8778 1384.7 81.8551 1385.61 81.8551V78.8551V75.8551C1384.61 75.8551 1383.71 75.8799 1382.91 75.9332L1383.11 78.9266ZM1385.61 78.8551V81.8551H1401.91V78.8551V75.8551H1385.61V78.8551ZM1492.6 143.205V146.205H1496.84L1495.43 142.205L1492.6 143.205ZM1481.37 111.459L1484.2 110.459L1484.18 110.401L1484.16 110.345L1481.37 111.459ZM1479.23 105.596L1476.37 106.508L1476.38 106.536L1476.39 106.563L1479.23 105.596ZM1477.15 98.3031L1480.06 97.563L1474.24 97.5755L1477.15 98.3031ZM1475.01 105.739L1472.16 104.79L1472.16 104.809L1472.15 104.827L1475.01 105.739ZM1472.94 111.602L1470.15 110.488L1470.13 110.545L1470.11 110.604L1472.94 111.602ZM1461.78 143.205L1458.95 142.207L1457.54 146.205H1461.78V143.205ZM1528.63 182.602V185.602H1533.03L1531.43 181.511L1528.63 182.602ZM1507.4 181.315L1505.54 183.667L1505.59 183.709L1505.65 183.749L1507.4 181.315ZM1504.83 177.883L1502 178.883L1502.02 178.957L1502.05 179.03L1504.83 177.883ZM1497.82 158.077L1500.65 157.076L1499.94 155.077H1497.82V158.077ZM1456.49 158.077V155.077H1454.37L1453.66 157.076L1456.49 158.077ZM1449.48 177.883L1452.27 178.997L1452.29 178.94L1452.31 178.883L1449.48 177.883ZM1446.98 181.172L1448.86 183.514L1448.88 183.492L1448.91 183.469L1446.98 181.172ZM1425.67 182.602L1422.88 181.51L1421.28 185.602H1425.67V182.602ZM1466.22 78.8551V75.8551H1464.17L1463.42 77.7632L1466.22 78.8551ZM1488.17 78.8551L1490.96 77.7648L1490.22 75.8551H1488.17V78.8551ZM1492.6 143.205L1495.43 142.205L1484.2 110.459L1481.37 111.459L1478.55 112.459L1489.77 144.205L1492.6 143.205ZM1481.37 111.459L1484.16 110.345C1483.52 108.738 1482.82 106.835 1482.07 104.629L1479.23 105.596L1476.39 106.563C1477.16 108.838 1477.9 110.844 1478.59 112.573L1481.37 111.459ZM1479.23 105.596L1482.09 104.684C1481.39 102.508 1480.72 100.135 1480.06 97.563L1477.15 98.3031L1474.25 99.0431C1474.93 101.714 1475.63 104.203 1476.37 106.508L1479.23 105.596ZM1477.15 98.3031L1474.24 97.5755C1473.59 100.18 1472.9 102.584 1472.16 104.79L1475.01 105.739L1477.86 106.688C1478.65 104.318 1479.38 101.764 1480.07 99.0307L1477.15 98.3031ZM1475.01 105.739L1472.15 104.827C1471.45 107.019 1470.79 108.903 1470.15 110.488L1472.94 111.602L1475.72 112.716C1476.42 110.965 1477.14 108.94 1477.87 106.651L1475.01 105.739ZM1472.94 111.602L1470.11 110.604L1458.95 142.207L1461.78 143.205L1464.61 144.204L1475.77 112.601L1472.94 111.602ZM1461.78 143.205V146.205H1492.6V143.205V140.205H1461.78V143.205ZM1528.63 182.602V179.602H1511.98V182.602V185.602H1528.63V182.602ZM1511.98 182.602V179.602C1510.58 179.602 1509.71 179.283 1509.15 178.88L1507.4 181.315L1505.65 183.749C1507.47 185.062 1509.66 185.602 1511.98 185.602V182.602ZM1507.4 181.315L1509.26 178.962C1508.53 178.383 1507.98 177.658 1507.6 176.736L1504.83 177.883L1502.05 179.03C1502.82 180.872 1503.98 182.435 1505.54 183.667L1507.4 181.315ZM1504.83 177.883L1507.65 176.882L1500.65 157.076L1497.82 158.077L1494.99 159.078L1502 178.883L1504.83 177.883ZM1497.82 158.077V155.077H1456.49V158.077V161.077H1497.82V158.077ZM1456.49 158.077L1453.66 157.076L1446.66 176.882L1449.48 177.883L1452.31 178.883L1459.32 159.078L1456.49 158.077ZM1449.48 177.883L1446.7 176.768C1446.44 177.413 1445.95 178.124 1445.05 178.874L1446.98 181.172L1448.91 183.469C1450.4 182.217 1451.57 180.735 1452.27 178.997L1449.48 177.883ZM1446.98 181.172L1445.11 178.829C1444.54 179.281 1443.74 179.602 1442.48 179.602V182.602V185.602C1444.84 185.602 1447.04 184.969 1448.86 183.514L1446.98 181.172ZM1442.48 182.602V179.602H1425.67V182.602V185.602H1442.48V182.602ZM1425.67 182.602L1428.47 183.693L1469.01 79.9469L1466.22 78.8551L1463.42 77.7632L1422.88 181.51L1425.67 182.602ZM1466.22 78.8551V81.8551H1488.17V78.8551V75.8551H1466.22V78.8551ZM1488.17 78.8551L1485.37 79.9453L1525.84 183.692L1528.63 182.602L1531.43 181.511L1490.96 77.7648L1488.17 78.8551ZM1615.77 96.1581V99.1581H1618.77V96.1581H1615.77ZM1585.46 96.1581V93.1581H1582.46V96.1581H1585.46ZM1585.46 182.602V185.602H1588.46V182.602H1585.46ZM1563.94 182.602H1560.94V185.602H1563.94V182.602ZM1563.94 96.1581H1566.94V93.1581H1563.94V96.1581ZM1533.62 96.1581H1530.62V99.1581H1533.62V96.1581ZM1533.62 78.8551V75.8551H1530.62V78.8551H1533.62ZM1615.77 78.8551H1618.77V75.8551H1615.77V78.8551ZM1615.77 96.1581V93.1581H1585.46V96.1581V99.1581H1615.77V96.1581ZM1585.46 96.1581H1582.46V182.602H1585.46H1588.46V96.1581H1585.46ZM1585.46 182.602V179.602H1563.94V182.602V185.602H1585.46V182.602ZM1563.94 182.602H1566.94V96.1581H1563.94H1560.94V182.602H1563.94ZM1563.94 96.1581V93.1581H1533.62V96.1581V99.1581H1563.94V96.1581ZM1533.62 96.1581H1536.62V78.8551H1533.62H1530.62V96.1581H1533.62ZM1533.62 78.8551V81.8551H1615.77V78.8551V75.8551H1533.62V78.8551ZM1615.77 78.8551H1612.77V96.1581H1615.77H1618.77V78.8551H1615.77ZM1736.26 151.785L1733.47 150.678L1733.46 150.687L1733.46 150.696L1736.26 151.785ZM1725.46 168.588L1723.33 166.477L1723.32 166.483L1723.32 166.488L1725.46 168.588ZM1708.73 179.742L1709.86 182.519L1709.87 182.515L1709.88 182.511L1708.73 179.742ZM1665.26 179.742L1664.1 182.511L1664.11 182.515L1664.12 182.519L1665.26 179.742ZM1648.45 168.588L1650.59 166.477V166.477L1648.45 168.588ZM1637.59 151.785L1634.79 152.874L1634.79 152.883L1634.8 152.892L1637.59 151.785ZM1637.59 109.672L1634.8 108.564L1634.79 108.575L1637.59 109.672ZM1648.45 92.8691L1646.32 90.7585V90.7585L1648.45 92.8691ZM1665.26 81.7866L1666.39 84.5635L1666.4 84.56L1666.41 84.5564L1665.26 81.7866ZM1708.73 81.7866L1707.58 84.5564L1707.58 84.56L1707.59 84.5635L1708.73 81.7866ZM1725.46 92.9406L1723.31 95.0293L1723.32 95.0403L1723.33 95.0511L1725.46 92.9406ZM1736.26 109.743L1733.46 110.832L1733.46 110.845L1733.47 110.857L1736.26 109.743ZM1716.02 116.107L1713.17 117.046L1713.17 117.055L1716.02 116.107ZM1709.8 105.096L1707.54 107.071L1707.56 107.09L1707.58 107.108L1709.8 105.096ZM1700 98.1601L1698.83 100.921L1698.85 100.93L1698.87 100.938L1700 98.1601ZM1673.91 98.1601L1675.04 100.938L1675.05 100.932L1675.07 100.926L1673.91 98.1601ZM1664.04 105.096L1661.8 103.1L1661.8 103.102L1664.04 105.096ZM1657.89 116.107L1660.74 117.055L1660.74 117.046L1657.89 116.107ZM1657.89 145.422L1655.04 146.361L1655.05 146.37L1657.89 145.422ZM1664.04 156.361L1661.8 158.354L1661.81 158.364L1661.82 158.374L1664.04 156.361ZM1673.91 163.297L1672.75 166.063L1672.76 166.069L1672.78 166.075L1673.91 163.297ZM1700 163.297L1701.15 166.07L1701.16 166.066L1701.17 166.063L1700 163.297ZM1709.8 156.361L1707.58 154.348L1707.57 154.358L1707.56 154.368L1709.8 156.361ZM1716.02 145.422L1718.87 146.37L1718.87 146.361L1716.02 145.422ZM1740.12 130.693H1737.12C1737.12 137.925 1735.89 144.577 1733.47 150.678L1736.26 151.785L1739.04 152.892C1741.77 146.028 1743.12 138.618 1743.12 130.693H1740.12ZM1736.26 151.785L1733.46 150.696C1731.08 156.815 1727.7 162.063 1723.33 166.477L1725.46 168.588L1727.59 170.698C1732.56 165.674 1736.38 159.721 1739.05 152.874L1736.26 151.785ZM1725.46 168.588L1723.32 166.488C1718.99 170.899 1713.76 174.398 1707.58 176.972L1708.73 179.742L1709.88 182.511C1716.76 179.651 1722.68 175.714 1727.6 170.687L1725.46 168.588ZM1708.73 179.742L1707.59 176.965C1701.47 179.469 1694.61 180.746 1686.99 180.746V183.746V186.746C1695.29 186.746 1702.93 185.353 1709.86 182.519L1708.73 179.742ZM1686.99 183.746V180.746C1679.37 180.746 1672.52 179.469 1666.39 176.965L1665.26 179.742L1664.12 182.519C1671.05 185.353 1678.69 186.746 1686.99 186.746V183.746ZM1665.26 179.742L1666.41 176.972C1660.22 174.397 1654.96 170.895 1650.59 166.477L1648.45 168.588L1646.32 170.698C1651.29 175.718 1657.23 179.652 1664.1 182.511L1665.26 179.742ZM1648.45 168.588L1650.59 166.477C1646.21 162.059 1642.81 156.805 1640.37 150.678L1637.59 151.785L1634.8 152.892C1637.51 159.731 1641.35 165.678 1646.32 170.698L1648.45 168.588ZM1637.59 151.785L1640.38 150.696C1638 144.59 1636.8 137.932 1636.8 130.693H1633.8H1630.8C1630.8 138.611 1632.12 146.015 1634.79 152.874L1637.59 151.785ZM1633.8 130.693H1636.8C1636.8 123.453 1638 116.821 1640.38 110.768L1637.59 109.672L1634.79 108.575C1632.12 115.392 1630.8 122.775 1630.8 130.693H1633.8ZM1637.59 109.672L1640.37 110.779C1642.81 104.652 1646.21 99.3973 1650.59 94.9796L1648.45 92.8691L1646.32 90.7585C1641.35 95.7788 1637.51 101.726 1634.8 108.564L1637.59 109.672ZM1648.45 92.8691L1650.59 94.9796C1654.96 90.5652 1660.21 87.0898 1666.39 84.5635L1665.26 81.7866L1664.12 79.0096C1657.24 81.822 1651.29 85.7349 1646.32 90.7585L1648.45 92.8691ZM1665.26 81.7866L1666.41 84.5564C1672.53 82.0093 1679.38 80.7111 1686.99 80.7111V77.7111V74.7111C1678.69 74.7111 1671.04 76.1299 1664.1 79.0167L1665.26 81.7866ZM1686.99 77.7111V80.7111C1694.61 80.7111 1701.45 82.0093 1707.58 84.5564L1708.73 81.7866L1709.88 79.0167C1702.94 76.1299 1695.3 74.7111 1686.99 74.7111V77.7111ZM1708.73 81.7866L1707.59 84.5635C1713.76 87.0861 1718.99 90.5782 1723.31 95.0293L1725.46 92.9406L1727.61 90.8518C1722.68 85.7696 1716.75 81.8257 1709.86 79.0096L1708.73 81.7866ZM1725.46 92.9406L1723.33 95.0511C1727.7 99.4647 1731.08 104.713 1733.46 110.832L1736.26 109.743L1739.05 108.654C1736.38 101.808 1732.56 95.8544 1727.59 90.83L1725.46 92.9406ZM1736.26 109.743L1733.47 110.857C1735.89 116.908 1737.12 123.51 1737.12 130.693H1740.12H1743.12C1743.12 122.813 1741.77 115.448 1739.04 108.629L1736.26 109.743ZM1718.17 130.693H1721.17C1721.17 124.999 1720.42 119.808 1718.87 115.158L1716.02 116.107L1713.17 117.055C1714.48 120.985 1715.17 125.518 1715.17 130.693H1718.17ZM1716.02 116.107L1718.87 115.167C1717.33 110.483 1715.06 106.434 1712.02 103.083L1709.8 105.096L1707.58 107.108C1709.98 109.764 1711.86 113.055 1713.17 117.046L1716.02 116.107ZM1709.8 105.096L1712.06 103.12C1709.07 99.7076 1705.42 97.1259 1701.14 95.3818L1700 98.1601L1698.87 100.938C1702.31 102.34 1705.19 104.382 1707.54 107.071L1709.8 105.096ZM1700 98.1601L1701.18 95.3991C1696.94 93.5958 1692.19 92.7291 1686.99 92.7291V95.7291V98.7291C1691.52 98.7291 1695.45 99.483 1698.83 100.921L1700 98.1601ZM1686.99 95.7291V92.7291C1681.79 92.7291 1677.03 93.5961 1672.75 95.3939L1673.91 98.1601L1675.07 100.926C1678.51 99.4827 1682.46 98.7291 1686.99 98.7291V95.7291ZM1673.91 98.1601L1672.78 95.3818C1668.5 97.124 1664.83 99.7002 1661.8 103.1L1664.04 105.096L1666.28 107.091C1668.69 104.39 1671.59 102.342 1675.04 100.938L1673.91 98.1601ZM1664.04 105.096L1661.8 103.102C1658.82 106.451 1656.58 110.494 1655.04 115.167L1657.89 116.107L1660.74 117.046C1662.06 113.044 1663.92 109.746 1666.28 107.089L1664.04 105.096ZM1657.89 116.107L1655.05 115.158C1653.5 119.808 1652.75 124.999 1652.75 130.693H1655.75H1658.75C1658.75 125.518 1659.43 120.985 1660.74 117.055L1657.89 116.107ZM1655.75 130.693H1652.75C1652.75 136.431 1653.49 141.666 1655.04 146.361L1657.89 145.422L1660.74 144.482C1659.43 140.501 1658.75 135.917 1658.75 130.693H1655.75ZM1657.89 145.422L1655.05 146.37C1656.59 150.997 1658.83 155.012 1661.8 158.354L1664.04 156.361L1666.28 154.368C1663.91 151.705 1662.05 148.426 1660.74 144.473L1657.89 145.422ZM1664.04 156.361L1661.82 158.374C1664.84 161.714 1668.49 164.278 1672.75 166.063L1673.91 163.297L1675.07 160.53C1671.6 159.074 1668.68 157.014 1666.26 154.348L1664.04 156.361ZM1673.91 163.297L1672.78 166.075C1677.05 167.816 1681.81 168.656 1686.99 168.656V165.656V162.656C1682.45 162.656 1678.49 161.923 1675.04 160.518L1673.91 163.297ZM1686.99 165.656V168.656C1692.18 168.656 1696.91 167.817 1701.15 166.07L1700 163.297L1698.86 160.523C1695.47 161.922 1691.53 162.656 1686.99 162.656V165.656ZM1700 163.297L1701.17 166.063C1705.42 164.276 1709.06 161.707 1712.04 158.354L1709.8 156.361L1707.56 154.368C1705.2 157.021 1702.31 159.076 1698.84 160.53L1700 163.297ZM1709.8 156.361L1712.02 158.374C1715.05 155.029 1717.32 151.008 1718.87 146.37L1716.02 145.422L1713.17 144.473C1711.86 148.415 1709.98 151.687 1707.58 154.348L1709.8 156.361ZM1716.02 145.422L1718.87 146.361C1720.42 141.666 1721.17 136.431 1721.17 130.693H1718.17H1715.17C1715.17 135.917 1714.48 140.501 1713.17 144.482L1716.02 145.422ZM1811.55 126.689L1812.52 129.529L1812.54 129.521L1812.56 129.513L1811.55 126.689ZM1817.77 123.042L1819.83 125.227L1819.84 125.211L1819.86 125.195L1817.77 123.042ZM1821.35 117.537L1818.53 116.511V116.511L1821.35 117.537ZM1817.56 99.2326L1815.63 101.532L1815.64 101.539L1815.65 101.545L1817.56 99.2326ZM1791.53 95.1571V92.1571H1788.53V95.1571H1791.53ZM1791.53 127.976H1788.53V130.976H1791.53V127.976ZM1852.81 182.602V185.602H1858.32L1855.33 180.971L1852.81 182.602ZM1825.57 178.455L1828.15 176.937L1828.13 176.905L1828.11 176.873L1825.57 178.455ZM1805.83 146.637L1808.38 145.056L1808.36 145.025L1808.34 144.995L1805.83 146.637ZM1803.11 143.92L1801.57 146.493L1801.6 146.509L1801.63 146.525L1803.11 143.92ZM1791.53 143.062V140.062H1788.53V143.062H1791.53ZM1791.53 182.602V185.602H1794.53V182.602H1791.53ZM1770.08 182.602H1767.08V185.602H1770.08V182.602ZM1770.08 78.8551V75.8551H1767.08V78.8551H1770.08ZM1821.28 81.1431L1820.42 84.0195L1820.44 84.0231L1820.45 84.0266L1821.28 81.1431ZM1841.15 96.9446L1838.38 98.0832L1838.38 98.0958L1841.15 96.9446ZM1841.94 118.895L1839.08 117.973L1839.08 117.986L1839.08 118L1841.94 118.895ZM1837.72 127.261L1835.3 125.483V125.483L1837.72 127.261ZM1830.86 133.982L1832.61 136.417V136.417L1830.86 133.982ZM1821.56 138.701L1820.59 135.862L1814.18 138.056L1820.11 141.327L1821.56 138.701ZM1825.42 141.489L1823.39 143.697L1823.42 143.719L1823.44 143.741L1825.42 141.489ZM1828.64 145.279L1826.12 146.905L1826.12 146.909L1828.64 145.279ZM1802.54 127.976V130.976C1806.26 130.976 1809.6 130.519 1812.52 129.529L1811.55 126.689L1810.59 123.848C1808.45 124.574 1805.79 124.976 1802.54 124.976V127.976ZM1811.55 126.689L1812.56 129.513C1815.4 128.496 1817.85 127.087 1819.83 125.227L1817.77 123.042L1815.72 120.857C1814.45 122.048 1812.76 123.07 1810.54 123.865L1811.55 126.689ZM1817.77 123.042L1819.86 125.195C1821.8 123.31 1823.25 121.091 1824.17 118.562L1821.35 117.537L1818.53 116.511C1817.92 118.177 1816.98 119.628 1815.68 120.889L1817.77 123.042ZM1821.35 117.537L1824.17 118.562C1825.06 116.102 1825.49 113.462 1825.49 110.673H1822.49H1819.49C1819.49 112.84 1819.16 114.777 1818.53 116.511L1821.35 117.537ZM1822.49 110.673H1825.49C1825.49 105.019 1823.56 100.296 1819.47 96.9197L1817.56 99.2326L1815.65 101.545C1818.14 103.603 1819.49 106.507 1819.49 110.673H1822.49ZM1817.56 99.2326L1819.48 96.9335C1815.47 93.5664 1809.68 92.1571 1802.69 92.1571V95.1571V98.1571C1809.04 98.1571 1813.16 99.4647 1815.63 101.532L1817.56 99.2326ZM1802.69 95.1571V92.1571H1791.53V95.1571V98.1571H1802.69V95.1571ZM1791.53 95.1571H1788.53V127.976H1791.53H1794.53V95.1571H1791.53ZM1791.53 127.976V130.976H1802.54V127.976V124.976H1791.53V127.976ZM1852.81 182.602V179.602H1833.43V182.602V185.602H1852.81V182.602ZM1833.43 182.602V179.602C1830.71 179.602 1829.16 178.648 1828.15 176.937L1825.57 178.455L1822.98 179.972C1825.22 183.79 1828.91 185.602 1833.43 185.602V182.602ZM1825.57 178.455L1828.11 176.873L1808.38 145.056L1805.83 146.637L1803.28 148.218L1823.02 180.036L1825.57 178.455ZM1805.83 146.637L1808.34 144.995C1807.34 143.468 1806.12 142.18 1804.6 141.315L1803.11 143.92L1801.63 146.525C1802.11 146.804 1802.7 147.327 1803.32 148.279L1805.83 146.637ZM1803.11 143.92L1804.66 141.348C1803.01 140.361 1800.93 140.062 1798.82 140.062V143.062V146.062C1800.53 146.062 1801.31 146.335 1801.57 146.493L1803.11 143.92ZM1798.82 143.062V140.062H1791.53V143.062V146.062H1798.82V143.062ZM1791.53 143.062H1788.53V182.602H1791.53H1794.53V143.062H1791.53ZM1791.53 182.602V179.602H1770.08V182.602V185.602H1791.53V182.602ZM1770.08 182.602H1773.08V78.8551H1770.08H1767.08V182.602H1770.08ZM1770.08 78.8551V81.8551H1802.69V78.8551V75.8551H1770.08V78.8551ZM1802.69 78.8551V81.8551C1809.74 81.8551 1815.63 82.599 1820.42 84.0195L1821.28 81.1431L1822.13 78.2667C1816.63 76.6364 1810.13 75.8551 1802.69 75.8551V78.8551ZM1821.28 81.1431L1820.45 84.0266C1825.31 85.4213 1829.14 87.3356 1832.04 89.6929L1833.93 87.3636L1835.82 85.0342C1832.15 82.0529 1827.54 79.8202 1822.1 78.2595L1821.28 81.1431ZM1833.93 87.3636L1832.04 89.6929C1834.96 92.0634 1837.05 94.8553 1838.38 98.0832L1841.15 96.9446L1843.93 95.8059C1842.2 91.5979 1839.48 88.0024 1835.82 85.0342L1833.93 87.3636ZM1841.15 96.9446L1838.38 98.0958C1839.74 101.361 1840.44 105.016 1840.44 109.1H1843.44H1846.44C1846.44 104.317 1845.62 99.8683 1843.92 95.7933L1841.15 96.9446ZM1843.44 109.1H1840.44C1840.44 112.235 1839.98 115.188 1839.08 117.973L1841.94 118.895L1844.79 119.817C1845.9 116.405 1846.44 112.828 1846.44 109.1H1843.44ZM1841.94 118.895L1839.08 118C1838.22 120.74 1836.96 123.229 1835.3 125.483L1837.72 127.261L1840.14 129.039C1842.2 126.24 1843.75 123.152 1844.8 119.79L1841.94 118.895ZM1837.72 127.261L1835.3 125.483C1833.64 127.74 1831.58 129.763 1829.1 131.546L1830.86 133.982L1832.61 136.417C1835.56 134.292 1838.08 131.834 1840.14 129.039L1837.72 127.261ZM1830.86 133.982L1829.1 131.546C1826.65 133.313 1823.82 134.757 1820.59 135.862L1821.56 138.701L1822.53 141.539C1826.26 140.261 1829.63 138.559 1832.61 136.417L1830.86 133.982ZM1821.56 138.701L1820.11 141.327C1821.28 141.971 1822.37 142.759 1823.39 143.697L1825.42 141.489L1827.45 139.281C1826.09 138.027 1824.61 136.955 1823.01 136.074L1821.56 138.701ZM1825.42 141.489L1823.44 143.741C1824.4 144.589 1825.3 145.635 1826.12 146.905L1828.64 145.279L1831.16 143.652C1830.07 141.967 1828.82 140.487 1827.4 139.237L1825.42 141.489ZM1828.64 145.279L1826.12 146.909L1850.29 184.232L1852.81 182.602L1855.33 180.971L1831.16 143.648L1828.64 145.279ZM1933.45 98.7321L1936.01 100.292L1936.06 100.211L1936.1 100.126L1933.45 98.7321ZM1931.37 101.163L1933.12 103.604L1933.13 103.593L1933.15 103.582L1931.37 101.163ZM1925.3 100.806L1923.68 103.332L1923.74 103.37L1923.8 103.404L1925.3 100.806ZM1921.08 98.3746L1922.48 95.7232V95.7232L1921.08 98.3746ZM1915.5 96.0151L1914.47 98.8344L1914.5 98.8448L1914.53 98.8546L1915.5 96.0151ZM1896.98 98.2316L1898.97 100.479L1898.98 100.468L1898.99 100.457L1896.98 98.2316ZM1895.27 112.603L1893.01 114.579L1893.04 114.616L1893.07 114.653L1895.27 112.603ZM1900.63 116.464L1899.29 119.147L1899.3 119.153L1899.31 119.159L1900.63 116.464ZM1908.21 119.396L1909.08 116.526L1908.21 119.396ZM1916.86 122.256L1915.86 125.083L1915.88 125.09L1915.9 125.097L1916.86 122.256ZM1933.02 131.05L1930.94 133.218L1930.96 133.229L1930.97 133.24L1933.02 131.05ZM1938.38 138.772L1935.63 139.975L1935.64 140.001L1935.66 140.026L1938.38 138.772ZM1937.95 163.082L1935.17 161.962L1935.16 161.971L1935.16 161.979L1937.95 163.082ZM1930.87 173.879L1932.98 176.016L1932.99 176.008L1932.99 176L1930.87 173.879ZM1919.36 181.1L1918.28 178.301L1918.27 178.305L1919.36 181.1ZM1894.05 182.745L1893.45 185.683L1893.45 185.685L1894.05 182.745ZM1884.61 179.956L1883.51 182.745L1883.51 182.747L1883.52 182.75L1884.61 179.956ZM1876.1 175.666L1877.69 173.122V173.122L1876.1 175.666ZM1869.1 170.089L1866.55 168.509L1865.31 170.505L1866.95 172.185L1869.1 170.089ZM1875.39 159.936L1872.92 158.236L1872.88 158.295L1872.84 158.356L1875.39 159.936ZM1877.46 158.077L1878.92 160.7L1878.97 160.669L1879.03 160.637L1877.46 158.077ZM1884.25 158.721L1885.92 156.224V156.224L1884.25 158.721ZM1889.19 161.867L1890.76 159.312V159.312L1889.19 161.867ZM1895.62 165.013L1894.53 167.805L1894.54 167.809L1894.55 167.813L1895.62 165.013ZM1916.07 163.011L1914.16 160.699L1914.15 160.708L1914.14 160.716L1916.07 163.011ZM1918.15 146.423L1915.83 148.33L1915.85 148.35L1915.86 148.369L1918.15 146.423ZM1905.35 139.559L1904.52 142.441L1904.54 142.448L1904.56 142.454L1905.35 139.559ZM1896.7 136.913L1897.62 134.058V134.058L1896.7 136.913ZM1888.04 133.481L1886.76 136.191V136.191L1888.04 133.481ZM1880.54 128.19L1878.42 130.311L1880.54 128.19ZM1875.17 120.039L1872.4 121.181L1872.41 121.199L1872.41 121.216L1875.17 120.039ZM1875.46 96.7301L1872.7 95.5659V95.5659L1875.46 96.7301ZM1893.05 80.2851L1891.95 77.4954L1891.93 77.4996L1893.05 80.2851ZM1925.22 80.6426L1924.18 83.4567L1924.2 83.4623L1924.22 83.4678L1925.22 80.6426ZM1938.74 88.6506L1941.39 90.0447L1942.46 88.0206L1940.79 86.4593L1938.74 88.6506ZM1933.45 98.7321L1930.88 97.1722C1930.34 98.0709 1929.89 98.531 1929.6 98.7438L1931.37 101.163L1933.15 103.582C1934.29 102.746 1935.22 101.586 1936.01 100.292L1933.45 98.7321ZM1931.37 101.163L1929.63 98.7219C1929.62 98.7305 1929.41 98.8781 1928.73 98.8781V101.878V104.878C1930.24 104.878 1931.79 104.549 1933.12 103.604L1931.37 101.163ZM1928.73 101.878V98.8781C1928.36 98.8781 1927.74 98.7509 1926.79 98.207L1925.3 100.806L1923.8 103.404C1925.33 104.29 1927 104.878 1928.73 104.878V101.878ZM1925.3 100.806L1926.91 98.2787C1925.63 97.4609 1924.15 96.6092 1922.48 95.7232L1921.08 98.3746L1919.67 101.026C1921.24 101.856 1922.57 102.625 1923.68 103.332L1925.3 100.806ZM1921.08 98.3746L1922.48 95.7232C1920.69 94.7777 1918.69 93.9315 1916.47 93.1755L1915.5 96.0151L1914.53 98.8546C1916.51 99.5286 1918.22 100.255 1919.67 101.026L1921.08 98.3746ZM1915.5 96.0151L1916.53 93.1957C1914.03 92.287 1911.21 91.8711 1908.14 91.8711V94.8711V97.8711C1910.69 97.8711 1912.78 98.2178 1914.47 98.8344L1915.5 96.0151ZM1908.14 94.8711V91.8711C1902.79 91.8711 1898.21 93.0732 1894.97 96.0059L1896.98 98.2316L1898.99 100.457C1900.71 98.9093 1903.57 97.8711 1908.14 97.8711V94.8711ZM1896.98 98.2316L1894.99 95.9846C1891.82 98.7962 1890.26 102.526 1890.26 106.883H1893.26H1896.26C1896.26 104.09 1897.19 102.052 1898.97 100.479L1896.98 98.2316ZM1893.26 106.883H1890.26C1890.26 109.798 1891.13 112.435 1893.01 114.579L1895.27 112.603L1897.52 110.628C1896.73 109.72 1896.26 108.544 1896.26 106.883H1893.26ZM1895.27 112.603L1893.07 114.653C1894.75 116.439 1896.84 117.924 1899.29 119.147L1900.63 116.464L1901.97 113.781C1900.03 112.811 1898.55 111.723 1897.46 110.554L1895.27 112.603ZM1900.63 116.464L1899.31 119.159C1901.72 120.336 1904.39 121.369 1907.33 122.265L1908.21 119.396L1909.08 116.526C1906.4 115.707 1904.02 114.785 1901.95 113.769L1900.63 116.464ZM1908.21 119.396L1907.33 122.265C1910.1 123.109 1912.94 124.048 1915.86 125.083L1916.86 122.256L1917.86 119.428C1914.87 118.366 1911.94 117.398 1909.08 116.526L1908.21 119.396ZM1916.86 122.256L1915.9 125.097C1918.73 126.056 1921.49 127.198 1924.19 128.523L1925.51 125.831L1926.83 123.138C1923.9 121.699 1920.9 120.457 1917.82 119.414L1916.86 122.256ZM1925.51 125.831L1924.19 128.523C1926.73 129.774 1928.98 131.34 1930.94 133.218L1933.02 131.05L1935.09 128.882C1932.67 126.566 1929.91 124.651 1926.83 123.138L1925.51 125.831ZM1933.02 131.05L1930.97 133.24C1932.89 135.036 1934.45 137.265 1935.63 139.975L1938.38 138.772L1941.13 137.57C1939.64 134.178 1937.63 131.259 1935.07 128.86L1933.02 131.05ZM1938.38 138.772L1935.66 140.026C1936.81 142.534 1937.45 145.749 1937.45 149.783H1940.45H1943.45C1943.45 145.142 1942.72 141.017 1941.11 137.518L1938.38 138.772ZM1940.45 149.783H1937.45C1937.45 154.14 1936.69 158.191 1935.17 161.962L1937.95 163.082L1940.73 164.202C1942.55 159.679 1943.45 154.864 1943.45 149.783H1940.45ZM1937.95 163.082L1935.16 161.979C1933.69 165.699 1931.56 168.951 1928.75 171.757L1930.87 173.879L1932.99 176C1936.38 172.61 1938.97 168.664 1940.74 164.185L1937.95 163.082ZM1930.87 173.879L1928.77 171.741C1926 174.468 1922.52 176.666 1918.28 178.301L1919.36 181.1L1920.44 183.899C1925.35 182.007 1929.55 179.39 1932.98 176.016L1930.87 173.879ZM1919.36 181.1L1918.27 178.305C1914.15 179.91 1909.38 180.746 1903.92 180.746V183.746V186.746C1909.99 186.746 1915.52 185.817 1920.45 183.896L1919.36 181.1ZM1903.92 183.746V180.746C1900.83 180.746 1897.74 180.433 1894.65 179.804L1894.05 182.745L1893.45 185.685C1896.93 186.391 1900.42 186.746 1903.92 186.746V183.746ZM1894.05 182.745L1894.66 179.806C1891.58 179.173 1888.59 178.291 1885.7 177.162L1884.61 179.956L1883.52 182.75C1886.73 184.004 1890.04 184.982 1893.45 185.683L1894.05 182.745ZM1884.61 179.956L1885.72 177.168C1882.88 176.041 1880.21 174.692 1877.69 173.122L1876.1 175.666L1874.51 178.21C1877.34 179.977 1880.34 181.488 1883.51 182.745L1884.61 179.956ZM1876.1 175.666L1877.69 173.122C1875.21 171.568 1873.06 169.856 1871.24 167.993L1869.1 170.089L1866.95 172.185C1869.13 174.422 1871.66 176.427 1874.51 178.21L1876.1 175.666ZM1869.1 170.089L1871.65 171.669L1877.94 161.516L1875.39 159.936L1872.84 158.356L1866.55 168.509L1869.1 170.089ZM1875.39 159.936L1877.86 161.636C1878.11 161.278 1878.44 160.965 1878.92 160.7L1877.46 158.077L1876.01 155.455C1874.77 156.142 1873.72 157.069 1872.92 158.236L1875.39 159.936ZM1877.46 158.077L1879.03 160.637C1879.44 160.384 1879.81 160.291 1880.18 160.291V157.291V154.291C1878.64 154.291 1877.2 154.721 1875.9 155.517L1877.46 158.077ZM1880.18 157.291V160.291C1880.71 160.291 1881.49 160.484 1882.59 161.217L1884.25 158.721L1885.92 156.224C1884.16 155.05 1882.23 154.291 1880.18 154.291V157.291ZM1884.25 158.721L1882.59 161.217C1884.06 162.195 1885.73 163.263 1887.62 164.422L1889.19 161.867L1890.76 159.312C1888.92 158.182 1887.31 157.153 1885.92 156.224L1884.25 158.721ZM1889.19 161.867L1887.62 164.422C1889.65 165.675 1891.96 166.799 1894.53 167.805L1895.62 165.013L1896.72 162.22C1894.42 161.319 1892.44 160.346 1890.76 159.312L1889.19 161.867ZM1895.62 165.013L1894.55 167.813C1897.45 168.93 1900.79 169.443 1904.49 169.443V166.443V163.443C1901.32 163.443 1898.75 163.001 1896.7 162.213L1895.62 165.013ZM1904.49 166.443V169.443C1909.92 169.443 1914.56 168.204 1918 165.305L1916.07 163.011L1914.14 160.716C1912.15 162.393 1909.07 163.443 1904.49 163.443V166.443ZM1916.07 163.011L1917.98 165.322C1921.61 162.319 1923.22 157.954 1923.22 152.786H1920.22H1917.22C1917.22 156.675 1916.06 159.126 1914.16 160.699L1916.07 163.011ZM1920.22 152.786H1923.22C1923.22 149.622 1922.37 146.757 1920.43 144.476L1918.15 146.423L1915.86 148.369C1916.68 149.33 1917.22 150.707 1917.22 152.786H1920.22ZM1918.15 146.423L1920.46 144.515C1918.82 142.521 1916.7 140.917 1914.2 139.664L1912.85 142.347L1911.51 145.03C1913.39 145.97 1914.8 147.083 1915.83 148.33L1918.15 146.423ZM1912.85 142.347L1914.2 139.664C1911.8 138.464 1909.1 137.468 1906.13 136.663L1905.35 139.559L1904.56 142.454C1907.22 143.174 1909.53 144.038 1911.51 145.03L1912.85 142.347ZM1905.35 139.559L1906.18 136.676C1903.4 135.875 1900.54 135.002 1897.62 134.058L1896.7 136.913L1895.77 139.768C1898.76 140.731 1901.67 141.622 1904.52 142.441L1905.35 139.559ZM1896.7 136.913L1897.62 134.058C1894.79 133.145 1892.02 132.049 1889.33 130.771L1888.04 133.481L1886.76 136.191C1889.69 137.582 1892.69 138.775 1895.77 139.768L1896.7 136.913ZM1888.04 133.481L1889.33 130.771C1886.83 129.583 1884.61 128.018 1882.66 126.069L1880.54 128.19L1878.42 130.311C1880.85 132.748 1883.64 134.71 1886.76 136.191L1888.04 133.481ZM1880.54 128.19L1882.66 126.069C1880.77 124.182 1879.19 121.799 1877.93 118.862L1875.17 120.039L1872.41 121.216C1873.93 124.762 1875.92 127.813 1878.42 130.311L1880.54 128.19ZM1875.17 120.039L1877.95 118.897C1876.81 116.126 1876.17 112.515 1876.17 107.956H1873.17H1870.17C1870.17 113.025 1870.87 117.47 1872.4 121.181L1875.17 120.039ZM1873.17 107.956H1876.17C1876.17 104.502 1876.85 101.155 1878.23 97.8942L1875.46 96.7301L1872.7 95.5659C1871.02 99.5502 1870.17 103.687 1870.17 107.956H1873.17ZM1875.46 96.7301L1878.23 97.8942C1879.58 94.6668 1881.58 91.7894 1884.25 89.2508L1882.18 87.0776L1880.11 84.9043C1876.87 87.9904 1874.39 91.548 1872.7 95.5659L1875.46 96.7301ZM1882.18 87.0776L1884.25 89.2508C1886.89 86.7338 1890.18 84.6635 1894.16 83.0705L1893.05 80.2851L1891.93 77.4996C1887.34 79.3386 1883.38 81.7966 1880.11 84.9043L1882.18 87.0776ZM1893.05 80.2851L1894.15 83.0747C1898.08 81.522 1902.65 80.7111 1907.92 80.7111V77.7111V74.7111C1902.04 74.7111 1896.7 75.6161 1891.95 77.4954L1893.05 80.2851ZM1907.92 77.7111V80.7111C1913.85 80.7111 1919.26 81.6378 1924.18 83.4567L1925.22 80.6426L1926.26 77.8284C1920.61 75.7387 1914.48 74.7111 1907.92 74.7111V77.7111ZM1925.22 80.6426L1924.22 83.4678C1929.22 85.2541 1933.35 87.7238 1936.69 90.8418L1938.74 88.6506L1940.79 86.4593C1936.78 82.7133 1931.91 79.8443 1926.23 77.8173L1925.22 80.6426ZM1938.74 88.6506L1936.08 87.2564L1930.79 97.3379L1933.45 98.7321L1936.1 100.126L1941.39 90.0447L1938.74 88.6506Z" fill="#131313" mask="url(#path-3-outside-2_1219_3125)"/>
<mask id="path-5-outside-3_1219_3125" maskUnits="userSpaceOnUse" x="606" y="75.6016" width="157" height="110" fill="black">
<rect fill="white" x="606" y="75.6016" width="157" height="110"/>
<path d="M677.637 143.205L666.412 111.459C665.744 109.791 665.029 107.836 664.267 105.596C663.552 103.356 662.86 100.925 662.193 98.3031C661.526 100.972 660.811 103.451 660.048 105.739C659.333 107.979 658.642 109.934 657.975 111.602L646.821 143.205H677.637ZM713.673 182.602H697.014C695.155 182.602 693.629 182.173 692.438 181.315C691.294 180.409 690.436 179.265 689.864 177.883L682.857 158.077H641.53L634.523 177.883C634.046 179.074 633.212 180.171 632.02 181.172C630.828 182.125 629.327 182.602 627.516 182.602H610.713L651.254 78.8551H673.204L713.673 182.602ZM759.168 182.602H737.575V78.8551H759.168V182.602Z"/>
</mask>
<path d="M677.637 143.205L666.412 111.459C665.744 109.791 665.029 107.836 664.267 105.596C663.552 103.356 662.86 100.925 662.193 98.3031C661.526 100.972 660.811 103.451 660.048 105.739C659.333 107.979 658.642 109.934 657.975 111.602L646.821 143.205H677.637ZM713.673 182.602H697.014C695.155 182.602 693.629 182.173 692.438 181.315C691.294 180.409 690.436 179.265 689.864 177.883L682.857 158.077H641.53L634.523 177.883C634.046 179.074 633.212 180.171 632.02 181.172C630.828 182.125 629.327 182.602 627.516 182.602H610.713L651.254 78.8551H673.204L713.673 182.602ZM759.168 182.602H737.575V78.8551H759.168V182.602Z" fill="#209EF2"/>
<path d="M677.637 143.205V146.205H681.88L680.465 142.205L677.637 143.205ZM666.412 111.459L669.24 110.459L669.22 110.401L669.197 110.345L666.412 111.459ZM664.266 105.596L661.409 106.508L661.417 106.536L661.427 106.563L664.266 105.596ZM662.193 98.3031L665.1 97.563L659.283 97.5755L662.193 98.3031ZM660.048 105.739L657.202 104.79L657.196 104.809L657.19 104.827L660.048 105.739ZM657.974 111.602L655.189 110.488L655.166 110.545L655.146 110.604L657.974 111.602ZM646.82 143.205L643.992 142.207L642.58 146.205H646.82V143.205ZM713.673 182.602V185.602H718.063L716.468 181.511L713.673 182.602ZM692.438 181.315L690.575 183.667L690.629 183.709L690.685 183.749L692.438 181.315ZM689.864 177.883L687.035 178.883L687.061 178.957L687.091 179.03L689.864 177.883ZM682.857 158.077L685.685 157.076L684.977 155.077H682.857V158.077ZM641.53 158.077V155.077H639.409L638.701 157.076L641.53 158.077ZM634.523 177.883L637.308 178.997L637.33 178.94L637.351 178.883L634.523 177.883ZM632.02 181.172L633.894 183.514L633.922 183.492L633.95 183.469L632.02 181.172ZM610.713 182.602L607.919 181.51L606.32 185.602H610.713V182.602ZM651.254 78.8551V75.8551H649.205L648.459 77.7632L651.254 78.8551ZM673.204 78.8551L675.999 77.7648L675.254 75.8551H673.204V78.8551ZM677.637 143.205L680.465 142.205L669.24 110.459L666.412 111.459L663.583 112.459L674.809 144.205L677.637 143.205ZM666.412 111.459L669.197 110.345C668.554 108.738 667.857 106.835 667.106 104.629L664.266 105.596L661.427 106.563C662.201 108.838 662.934 110.844 663.626 112.573L666.412 111.459ZM664.266 105.596L667.124 104.684C666.43 102.508 665.755 100.135 665.1 97.563L662.193 98.3031L659.286 99.0431C659.966 101.714 660.673 104.203 661.409 106.508L664.266 105.596ZM662.193 98.3031L659.283 97.5755C658.631 100.18 657.937 102.584 657.202 104.79L660.048 105.739L662.894 106.688C663.684 104.318 664.42 101.764 665.103 99.0307L662.193 98.3031ZM660.048 105.739L657.19 104.827C656.491 107.019 655.823 108.903 655.189 110.488L657.974 111.602L660.76 112.716C661.46 110.965 662.175 108.94 662.906 106.651L660.048 105.739ZM657.974 111.602L655.146 110.604L643.992 142.207L646.82 143.205L649.649 144.204L660.803 112.601L657.974 111.602ZM646.82 143.205V146.205H677.637V143.205V140.205H646.82V143.205ZM713.673 182.602V179.602H697.014V182.602V185.602H713.673V182.602ZM697.014 182.602V179.602C695.615 179.602 694.75 179.283 694.19 178.88L692.438 181.315L690.685 183.749C692.508 185.062 694.694 185.602 697.014 185.602V182.602ZM692.438 181.315L694.3 178.962C693.567 178.383 693.017 177.658 692.636 176.736L689.864 177.883L687.091 179.03C687.854 180.872 689.02 182.435 690.575 183.667L692.438 181.315ZM689.864 177.883L692.692 176.882L685.685 157.076L682.857 158.077L680.028 159.078L687.035 178.883L689.864 177.883ZM682.857 158.077V155.077H641.53V158.077V161.077H682.857V158.077ZM641.53 158.077L638.701 157.076L631.694 176.882L634.523 177.883L637.351 178.883L644.358 159.078L641.53 158.077ZM634.523 177.883L631.737 176.768C631.479 177.413 630.983 178.124 630.09 178.874L632.02 181.172L633.95 183.469C635.44 182.217 636.613 180.735 637.308 178.997L634.523 177.883ZM632.02 181.172L630.146 178.829C629.581 179.281 628.778 179.602 627.516 179.602V182.602V185.602C629.876 185.602 632.076 184.969 633.894 183.514L632.02 181.172ZM627.516 182.602V179.602H610.713V182.602V185.602H627.516V182.602ZM610.713 182.602L613.507 183.693L654.048 79.9469L651.254 78.8551L648.459 77.7632L607.919 181.51L610.713 182.602ZM651.254 78.8551V81.8551H673.204V78.8551V75.8551H651.254V78.8551ZM673.204 78.8551L670.409 79.9453L710.878 183.692L713.673 182.602L716.468 181.511L675.999 77.7648L673.204 78.8551ZM759.168 182.602V185.602H762.168V182.602H759.168ZM737.575 182.602H734.575V185.602H737.575V182.602ZM737.575 78.8551V75.8551H734.575V78.8551H737.575ZM759.168 78.8551H762.168V75.8551H759.168V78.8551ZM759.168 182.602V179.602H737.575V182.602V185.602H759.168V182.602ZM737.575 182.602H740.575V78.8551H737.575H734.575V182.602H737.575ZM737.575 78.8551V81.8551H759.168V78.8551V75.8551H737.575V78.8551ZM759.168 78.8551H756.168V182.602H759.168H762.168V78.8551H759.168Z" fill="#209EF2" mask="url(#path-5-outside-3_1219_3125)"/>
<path d="M97.6719 56.1387C100.253 57.1166 103.052 57.6533 105.976 57.6533C108.354 57.6533 110.649 57.2981 112.812 56.6396V70.3486H97.6719V56.1387ZM112.812 49.3467C110.727 50.2899 108.413 50.8154 105.976 50.8154C102.95 50.8154 100.115 50.0061 97.6719 48.5928V39.5781H112.812V49.3467Z" fill="#131313"/>
<path d="M142.617 68.3984C167.879 68.3984 188.874 89.2732 193.118 116.752H193.188C193.702 120.081 193.971 123.508 193.971 127.006V148.985C193.971 152.657 193.674 156.249 193.109 159.733H193.041C188.625 186.971 167.729 207.599 142.617 207.599H70.8193C42.4961 207.598 19.5352 181.358 19.5352 148.988V127.01C19.5353 94.6404 42.4961 68.3986 70.8193 68.3984H142.617ZM75.21 92.8242C54.7092 92.8242 38.0899 109.444 38.0898 129.944V146.551C38.0899 167.052 54.7092 183.671 75.21 183.671H137.728C158.228 183.671 174.848 167.051 174.848 146.551V129.944C174.848 109.444 158.228 92.8242 137.728 92.8242H75.21ZM14.8066 116.752C14.3433 120.092 14.1016 123.517 14.1016 127.006V148.985C14.1016 152.646 14.3668 156.237 14.876 159.733H5.86133C2.62436 159.733 0 157.109 0 153.872V122.613C0.000396264 119.377 2.62461 116.752 5.86133 116.752H14.8066ZM207.579 116.752C210.816 116.752 213.439 119.377 213.439 122.613V153.872C213.439 157.109 210.816 159.733 207.579 159.733H198.751C199.26 156.237 199.525 152.646 199.525 148.985V127.006C199.525 123.517 199.284 120.092 198.82 116.752H207.579Z" fill="#131313"/>
<ellipse cx="69.1115" cy="137.27" rx="14.4084" ry="13.6758" fill="#209EF2"/>
<ellipse cx="143.846" cy="137.754" rx="14.4084" ry="13.6758" fill="#209EF2"/>
<path d="M122.595 34.2079C122.595 43.3793 115.161 50.8142 105.989 50.8142C96.8177 50.8142 89.3828 43.3793 89.3828 34.2079C89.3828 25.0365 96.8177 17.6016 105.989 17.6016C115.161 17.6016 122.595 25.0365 122.595 34.2079Z" fill="#131313"/>
<path d="M1969 48.6016C1981.7 48.6016 1992 38.3041 1992 25.6016C1992 12.899 1981.7 2.60156 1969 2.60156C1956.3 2.60156 1946 12.899 1946 25.6016C1946 38.3041 1956.3 48.6016 1969 48.6016Z" stroke="black" stroke-width="5.19774"/>
<path d="M1967.59 23.5278C1969.02 23.5278 1970.06 23.2419 1970.68 22.6962C1971.31 22.1764 1971.64 21.2928 1971.64 20.0453C1971.64 18.8239 1971.31 17.9662 1970.68 17.4205C1970.06 16.9007 1969.02 16.6408 1967.59 16.6408H1964.68V23.5278H1967.59ZM1964.68 28.2838V38.4194H1957.77V11.625H1968.32C1971.85 11.625 1974.42 12.2227 1976.06 13.4182C1977.72 14.5877 1978.53 16.4589 1978.53 19.0318C1978.53 20.799 1978.11 22.2544 1977.26 23.3979C1976.4 24.5154 1975.13 25.373 1973.38 25.8928C1974.35 26.1267 1975.18 26.6205 1975.93 27.3742C1976.69 28.1278 1977.44 29.2713 1978.19 30.8306L1981.96 38.4194H1974.61L1971.33 31.7662C1970.68 30.4408 1970.01 29.5052 1969.33 29.0374C1968.65 28.5436 1967.75 28.2838 1966.63 28.2838H1964.68Z" fill="black"/>
</svg>
